<svg id="Ebene_1" data-name="Ebene 1" xmlns="http://www.w3.org/2000/svg" viewBox="0 0 1131 146.71"><defs><style>.cls-1{fill:#80ba27;}.cls-2{fill:#4b5c66;}</style></defs><title>FB07_Wirtschaft</title><rect class="cls-1" x="54.99" y="83.21" width="18.33" height="18.33"/><rect class="cls-1" x="54.99" y="55.72" width="18.33" height="18.33"/><rect class="cls-1" x="54.99" y="28.23" width="18.33" height="18.33"/><rect class="cls-2" x="54.99" y="0.74" width="18.33" height="18.33"/><rect class="cls-2" x="27.49" y="28.23" width="18.33" height="18.33"/><rect class="cls-2" x="27.49" y="0.74" width="18.33" height="18.33"/><rect class="cls-2" y="28.23" width="18.33" height="18.33"/><rect class="cls-2" x="27.49" y="83.21" width="18.33" height="18.33"/><rect class="cls-2" x="27.49" y="55.72" width="18.33" height="18.33"/><rect class="cls-1" y="83.21" width="18.33" height="18.33"/><rect class="cls-2" y="55.72" width="18.33" height="18.33"/><polygon class="cls-1" points="194.41 19.06 194.41 101.54 173.98 101.54 173.98 19.06 146.62 19.06 146.62 0.74 221.77 0.74 221.77 19.06 194.41 19.06"/><polygon class="cls-1" points="300.56 101.54 300.56 59.41 265.12 59.41 265.12 101.54 244.68 101.54 244.68 0.73 265.12 0.73 265.12 41.32 300.56 41.32 300.56 0.73 321 0.73 321 101.54 300.56 101.54"/><polygon class="cls-1" points="418.32 101.54 418.32 44.42 398.79 83.2 384.01 83.21 364.35 44.42 364.35 101.54 343.91 101.54 343.91 0.73 364.06 0.73 391.41 57.37 418.61 0.73 438.76 0.73 438.76 101.54 418.32 101.54"/><path class="cls-2" d="M445.73,159.58v-22h-2.65v15l-5.63-15H435v22h2.65v-15l5.69,15h2.41Zm-14.7,0V157.2h-5.84v-7.48h5v-2.37h-5V140H431v-2.38h-8.49v22H431Zm-12.48-5.9c0-3.46-.59-5-3.08-6l-2.48-1c-1.76-.74-2.1-1.39-2.1-3.55a3.88,3.88,0,0,1,.77-2.63,2.24,2.24,0,0,1,1.71-.68,2.16,2.16,0,0,1,1.79.74,3.88,3.88,0,0,1,.68,2.66h2.65c0-2-.34-3.43-1.45-4.51a5.07,5.07,0,0,0-3.65-1.27,5,5,0,0,0-3.49,1.27,5.93,5.93,0,0,0-1.66,4.51c0,3.34.74,4.57,3,5.5l2.5,1c1.79,0.74,2.17,1.51,2.17,4,0,1.45-.13,2.29-0.71,2.94a2.83,2.83,0,0,1-3.71,0c-0.59-.62-0.74-1.42-0.74-2.88h-2.65c0,2.35.34,3.62,1.36,4.63a5.26,5.26,0,0,0,3.86,1.33,5.46,5.46,0,0,0,3.89-1.33c1-1,1.36-2.5,1.36-4.79m-14.05,0c0-3.46-.59-5-3.09-6l-2.47-1c-1.76-.74-2.1-1.39-2.1-3.55a3.87,3.87,0,0,1,.77-2.63,2.23,2.23,0,0,1,1.7-.68,2.16,2.16,0,0,1,1.79.74,3.87,3.87,0,0,1,.68,2.66h2.65c0-2-.34-3.43-1.45-4.51a5.07,5.07,0,0,0-3.65-1.27,5,5,0,0,0-3.49,1.27,5.93,5.93,0,0,0-1.66,4.51c0,3.34.74,4.57,3,5.5l2.5,1c1.79,0.74,2.17,1.51,2.17,4,0,1.45-.13,2.29-0.71,2.94a2.83,2.83,0,0,1-3.71,0c-0.59-.62-0.74-1.42-0.74-2.88H394c0,2.35.34,3.62,1.36,4.63a5.26,5.26,0,0,0,3.86,1.33,5.46,5.46,0,0,0,3.89-1.33c1-1,1.36-2.5,1.36-4.79m-13.85,5.9V157.2h-5.84v-7.48h5v-2.37h-5V140h5.84v-2.38h-8.5v22h8.5Zm-13,0v-22H375v9.61h-4.88v-9.61h-2.65v22h2.65v-10H375v10h2.65Zm-13.85,0V157.2h-5.84V137.58h-2.65v22h8.49Zm-12.44,0V157.2h-5.84v-7.48h5v-2.37h-5V140h5.84v-2.38h-8.49v22h8.49ZM339.19,140v-2.38h-10V140h3.71v19.62h2.65V140h3.68Zm-13,0v-2.38h-10V140h3.71v19.62h2.65V140h3.68Zm-13.68-2.38h-2.65v22h2.65v-22Zm-7.07,22v-22h-2.5l-4.42,12.23L294,137.58h-2.5v22h2.65V144.17l3.43,10h1.64l3.49-10.29v15.66h2.65Zm-24.69,0V157.2h-5.84v-7.48h5v-2.37h-5V140h5.84v-2.38h-8.49v22h8.49Zm-12.15,0V157.2h-5.84V137.58h-2.65v22h8.49Zm-12.92-5v-17H253v17.15a2.44,2.44,0,1,1-4.86,0V137.58H245.5v17a5.21,5.21,0,0,0,1.42,3.8,5,5,0,0,0,3.64,1.45,5.1,5.1,0,0,0,3.68-1.45,5.22,5.22,0,0,0,1.42-3.8m-14.59,5v-22h-2.65v9.61h-4.88v-9.61h-2.65v22h2.65v-10h4.88v10h2.65Zm-13.93-5.44h-2.62a4.52,4.52,0,0,1-.71,2.54,2.11,2.11,0,0,1-1.73.77,2.16,2.16,0,0,1-1.83-.83c-0.77-1.05-.89-2.81-0.89-8s0.12-7,.89-8a2.16,2.16,0,0,1,1.83-.83,2.1,2.1,0,0,1,1.73.77,4.16,4.16,0,0,1,.71,2.5h2.63a6.16,6.16,0,0,0-1.57-4.36,5.29,5.29,0,0,0-7.26.31c-1.45,1.67-1.61,3.55-1.61,9.64s0.16,8,1.61,9.64a4.75,4.75,0,0,0,3.77,1.6,4.84,4.84,0,0,0,3.4-1.2,6.14,6.14,0,0,0,1.67-4.48m-13.81-.46c0-3.46-.59-5-3.09-6l-2.48-1c-1.76-.74-2.1-1.39-2.1-3.55a3.86,3.86,0,0,1,.77-2.63,2.22,2.22,0,0,1,1.7-.68,2.17,2.17,0,0,1,1.8.74,3.88,3.88,0,0,1,.68,2.66h2.65c0-2-.34-3.43-1.45-4.51a5.07,5.07,0,0,0-3.65-1.27,5,5,0,0,0-3.49,1.27,5.93,5.93,0,0,0-1.67,4.51c0,3.34.74,4.57,3,5.5l2.5,1c1.79,0.74,2.16,1.51,2.16,4,0,1.45-.12,2.29-0.71,2.94a2.83,2.83,0,0,1-3.71,0c-0.59-.62-0.74-1.42-0.74-2.88h-2.65c0,2.35.34,3.62,1.36,4.63a5.27,5.27,0,0,0,3.87,1.33,5.46,5.46,0,0,0,3.89-1.33c1-1,1.36-2.5,1.36-4.79M199,159.58v-22H196.3v9.61h-4.88v-9.61h-2.65v22h2.65v-10h4.88v10H199Zm-14.1-5.44h-2.62a4.54,4.54,0,0,1-.71,2.54,2.1,2.1,0,0,1-1.73.77,2.16,2.16,0,0,1-1.82-.83c-0.77-1.05-.89-2.81-0.89-8s0.12-7,.89-8a2.16,2.16,0,0,1,1.82-.83,2.1,2.1,0,0,1,1.73.77,4.17,4.17,0,0,1,.71,2.5h2.62a6.15,6.15,0,0,0-1.57-4.36,5.29,5.29,0,0,0-7.26.31c-1.45,1.67-1.6,3.55-1.6,9.64s0.16,8,1.6,9.64a4.75,4.75,0,0,0,3.77,1.6,4.84,4.84,0,0,0,3.4-1.2,6.14,6.14,0,0,0,1.67-4.48M168,148.58c0,5.22-.15,7-0.93,8a2.09,2.09,0,0,1-1.79.83,2.16,2.16,0,0,1-1.82-.83c-0.77-1.05-.9-2.81-0.9-8s0.13-7,.9-8a2.16,2.16,0,0,1,1.82-.83,2.09,2.09,0,0,1,1.79.83c0.78,1.05.93,2.81,0.93,8m2.65,0c0-6.09-.18-8.07-1.6-9.64a5.23,5.23,0,0,0-7.54,0c-1.42,1.58-1.61,3.55-1.61,9.64s0.19,8.06,1.61,9.64a5.23,5.23,0,0,0,7.54,0c1.42-1.58,1.6-3.55,1.6-9.64m-14.77,11v-22h-2.65v9.61h-4.89v-9.61h-2.65v22h2.65v-10h4.89v10h2.65Zm-21,0V157.2H129v-7.48h5v-2.37h-5V140h5.84v-2.38h-8.49v22h8.49Zm-13,0v-22h-2.65v9.61H114.3v-9.61h-2.65v22h2.65v-10h4.88v10h2.65Zm-13.93-5.44h-2.62a4.54,4.54,0,0,1-.71,2.54,2.11,2.11,0,0,1-1.73.77,2.16,2.16,0,0,1-1.82-.83c-0.77-1.05-.9-2.81-0.9-8s0.12-7,.9-8a2.16,2.16,0,0,1,1.82-.83,2.1,2.1,0,0,1,1.73.77,4.21,4.21,0,0,1,.71,2.5h2.62a6.15,6.15,0,0,0-1.57-4.36,5.29,5.29,0,0,0-7.26.31c-1.45,1.67-1.6,3.55-1.6,9.64s0.15,8,1.6,9.64a4.74,4.74,0,0,0,3.77,1.6,4.85,4.85,0,0,0,3.4-1.2,6.14,6.14,0,0,0,1.67-4.48m-13.81-.46c0-3.46-.59-5-3.09-6l-2.47-1c-1.76-.74-2.1-1.39-2.1-3.55a3.86,3.86,0,0,1,.77-2.63,2.22,2.22,0,0,1,1.7-.68,2.17,2.17,0,0,1,1.79.74,3.88,3.88,0,0,1,.68,2.66H94c0-2-.34-3.43-1.45-4.51a5.06,5.06,0,0,0-3.65-1.27,5,5,0,0,0-3.49,1.27,5.93,5.93,0,0,0-1.67,4.51c0,3.34.74,4.57,3,5.5l2.51,1c1.79,0.74,2.16,1.51,2.16,4,0,1.45-.12,2.29-0.71,2.94a2.83,2.83,0,0,1-3.71,0c-0.59-.62-0.74-1.42-0.74-2.88H83.62c0,2.35.34,3.62,1.36,4.63a5.26,5.26,0,0,0,3.86,1.33,5.46,5.46,0,0,0,3.89-1.33c1-1,1.36-2.5,1.36-4.79m-14.37-16.1H77.06v22h2.65v-22Zm-7.54,22v-22H69.53v15l-5.63-15H61.43v22h2.65v-15l5.69,15h2.41Zm-15.28,0v-22H54.25v9.61H49.36v-9.61H46.71v22h2.65v-10h4.89v10H56.9Zm-14.1-5.44H40.18a4.55,4.55,0,0,1-.71,2.54,2.11,2.11,0,0,1-1.73.77,2.16,2.16,0,0,1-1.82-.83c-0.77-1.05-.9-2.81-0.9-8s0.12-7,.9-8a2.16,2.16,0,0,1,1.82-.83,2.1,2.1,0,0,1,1.73.77,4.21,4.21,0,0,1,.71,2.5H42.8a6.14,6.14,0,0,0-1.57-4.36,4.72,4.72,0,0,0-3.49-1.29,4.75,4.75,0,0,0-3.77,1.6c-1.45,1.67-1.6,3.55-1.6,9.64s0.16,8,1.6,9.64a4.75,4.75,0,0,0,3.77,1.6,4.85,4.85,0,0,0,3.4-1.2,6.14,6.14,0,0,0,1.66-4.48m-13.69,5.44V157.2H23.28v-7.48h5v-2.37h-5V140h5.84v-2.38H20.62v22h8.49ZM17,140v-2.38h-10V140h3.71v19.62H13.3V140H17Z" transform="translate(-6.94 -13.11)"/><rect class="cls-2" x="108.76" y="0.74" width="2.46" height="100.79"/><rect class="cls-2" x="474.03" y="0.73" width="2.46" height="100.74"/><path class="cls-2" d="M534.73,52.64a14.21,14.21,0,0,1-10.46-4.25,11.22,11.22,0,0,1-3.16-5.83,53,53,0,0,1-.65-9.64,53,53,0,0,1,.65-9.64,11,11,0,0,1,3.16-5.83,14.21,14.21,0,0,1,10.46-4.25c7.46,0,13,4.36,14.27,12.26h-7.68c-0.82-3.32-2.89-5.5-6.53-5.5a6,6,0,0,0-4.85,2C528.36,23.66,528,25.4,528,32.92s0.33,9.26,1.91,10.95a6,6,0,0,0,4.85,2c3.65,0,5.72-2.18,6.53-5.5H549C547.69,48.28,542.14,52.64,534.73,52.64Z" transform="translate(-6.94 -13.11)"/><path class="cls-2" d="M577,52.31l-2.29-6.86H560.93l-2.34,6.86h-7.9l14.1-38.79h5.94l14.16,38.79H577ZM568,25l-4.9,14.11h9.64Z" transform="translate(-6.94 -13.11)"/><path class="cls-2" d="M617.25,52.31V29.7l-7.41,14.71h-5.12L597.26,29.7V52.31h-7.57V13.52h7.46l10.13,21,10.07-21h7.46V52.31h-7.57Z" transform="translate(-6.94 -13.11)"/><path class="cls-2" d="M648.89,37.71h-7.46v14.6h-7.57V13.52h15c8,0,12.8,5.5,12.8,12.09S656.9,37.71,648.89,37.71Zm-0.38-17.43h-7.08V30.9h7.08c3.43,0,5.61-2.12,5.61-5.28S651.94,20.28,648.51,20.28Z" transform="translate(-6.94 -13.11)"/><path class="cls-2" d="M681.73,52.64c-8,0-14.27-5.39-14.27-13.62V13.52H675V38.75c0,4.47,2.61,7.14,6.7,7.14s6.75-2.67,6.75-7.14V13.52H696V39C696,47.24,689.69,52.64,681.73,52.64Z" transform="translate(-6.94 -13.11)"/><path class="cls-2" d="M715.12,52.64c-5.88,0-10.35-1.25-14.16-5.12l4.9-4.9c2.45,2.45,5.77,3.27,9.37,3.27,4.47,0,6.86-1.69,6.86-4.79a4.32,4.32,0,0,0-1.2-3.27,5.78,5.78,0,0,0-3.43-1.36l-4.68-.65c-3.32-.49-5.77-1.53-7.52-3.21A10.25,10.25,0,0,1,702.49,25c0-6.92,5.12-11.77,13.51-11.77,5.34,0,9.2,1.31,12.53,4.52l-4.79,4.74c-2.45-2.34-5.39-2.67-8-2.67-4,0-6,2.23-6,4.9a3.74,3.74,0,0,0,1.14,2.78A6.66,6.66,0,0,0,714.52,29l4.58,0.65c3.54,0.49,5.77,1.47,7.41,3,2.07,2,3,4.79,3,8.23C729.5,48.39,723.24,52.64,715.12,52.64Z" transform="translate(-6.94 -13.11)"/><path class="cls-2" d="M545.68,110.54a14.53,14.53,0,0,1-10.95,4.41,14.21,14.21,0,0,1-10.46-4.25,11.22,11.22,0,0,1-3.16-5.83,53,53,0,0,1-.65-9.64,53,53,0,0,1,.65-9.64,11,11,0,0,1,3.16-5.83,14.21,14.21,0,0,1,10.46-4.25c8.82,0,13.56,5.67,14.59,12.42H541.7c-0.93-3.76-3.21-5.66-7-5.66a6.17,6.17,0,0,0-4.85,2.07c-1.42,1.8-1.85,3.21-1.85,10.89s0.33,9.15,1.85,10.95a6,6,0,0,0,4.85,2,7,7,0,0,0,5.39-2.18,7.62,7.62,0,0,0,1.74-5.17V99.37h-7.13V93.05h14.65v5.67C549.38,104.38,548.35,107.7,545.68,110.54Z" transform="translate(-6.94 -13.11)"/><path class="cls-2" d="M556.47,114.62V75.84H564v38.79h-7.57Z" transform="translate(-6.94 -13.11)"/><path class="cls-2" d="M573.08,114.62V75.84h25.54v6.75h-18v9.1H596v6.75h-15.3v9.42h18v6.75H573.08Z" transform="translate(-6.94 -13.11)"/><path class="cls-2" d="M616.7,114.95c-5.88,0-10.35-1.25-14.16-5.12l4.9-4.9c2.45,2.45,5.77,3.27,9.37,3.27,4.47,0,6.86-1.69,6.86-4.79a4.32,4.32,0,0,0-1.2-3.27A5.78,5.78,0,0,0,619,98.77l-4.68-.65c-3.32-.49-5.77-1.53-7.52-3.21a10.25,10.25,0,0,1-2.78-7.63c0-6.92,5.12-11.77,13.51-11.77,5.34,0,9.2,1.31,12.53,4.52l-4.79,4.74c-2.45-2.34-5.39-2.67-8-2.67-4,0-6,2.23-6,4.9a3.74,3.74,0,0,0,1.14,2.78,6.66,6.66,0,0,0,3.59,1.52L620.68,92c3.54,0.49,5.77,1.47,7.41,3,2.07,2,3,4.79,3,8.23C631.08,110.7,624.82,114.95,616.7,114.95Z" transform="translate(-6.94 -13.11)"/><path class="cls-2" d="M648.57,114.95c-5.88,0-10.35-1.25-14.16-5.12l4.9-4.9c2.45,2.45,5.77,3.27,9.37,3.27,4.47,0,6.86-1.69,6.86-4.79a4.32,4.32,0,0,0-1.2-3.27,5.78,5.78,0,0,0-3.43-1.36l-4.68-.65c-3.32-.49-5.77-1.53-7.52-3.21a10.25,10.25,0,0,1-2.78-7.63c0-6.92,5.12-11.77,13.51-11.77,5.34,0,9.2,1.31,12.53,4.52l-4.79,4.74c-2.45-2.34-5.39-2.67-8-2.67-4,0-6,2.23-6,4.9a3.74,3.74,0,0,0,1.14,2.78A6.66,6.66,0,0,0,648,91.31L652.54,92c3.54,0.49,5.77,1.47,7.41,3,2.07,2,3,4.79,3,8.23C662.94,110.7,656.68,114.95,648.57,114.95Z" transform="translate(-6.94 -13.11)"/><path class="cls-2" d="M670.08,114.62V75.84h25.54v6.75h-18v9.1H693v6.75h-15.3v9.42h18v6.75H670.08Z" transform="translate(-6.94 -13.11)"/><path class="cls-2" d="M726,114.62L710.6,90.82v23.81H703V75.84h6.75l15.36,23.75V75.84h7.57v38.79H726Z" transform="translate(-6.94 -13.11)"/><rect class="cls-2" x="760.99" y="0.73" width="2.46" height="100.74"/><path class="cls-2" d="M844.27,52.23H838l-7.13-23.53-7.13,23.53h-6.32L807,13.44h7.9l6,24.46L828,13.44h5.66l7.08,24.46,6-24.46h7.9Z" transform="translate(-6.94 -13.11)"/><path class="cls-2" d="M859.52,52.23V13.44h7.57V52.23h-7.57Z" transform="translate(-6.94 -13.11)"/><path class="cls-2" d="M896.72,52.23l-7.57-15.47h-5.45V52.23h-7.57V13.44h15.19c7.9,0,12.58,5.39,12.58,11.87a10.44,10.44,0,0,1-7.08,10.19l8.66,16.72h-8.77Zm-5.88-32h-7.13V30.44h7.13c3.32,0,5.5-2.12,5.5-5.12S894.16,20.19,890.84,20.19Z" transform="translate(-6.94 -13.11)"/><path class="cls-2" d="M926.57,20.19v32H919v-32H908.87V13.44H936.7v6.75H926.57Z" transform="translate(-6.94 -13.11)"/><path class="cls-2" d="M953.53,52.55c-5.88,0-10.35-1.25-14.16-5.12l4.9-4.9c2.45,2.45,5.77,3.27,9.37,3.27,4.47,0,6.86-1.69,6.86-4.79a4.32,4.32,0,0,0-1.2-3.27,5.78,5.78,0,0,0-3.43-1.36l-4.68-.65c-3.32-.49-5.77-1.53-7.52-3.21a10.25,10.25,0,0,1-2.78-7.63c0-6.92,5.12-11.77,13.51-11.77,5.34,0,9.2,1.31,12.53,4.52l-4.79,4.74c-2.45-2.34-5.39-2.67-8-2.67-4,0-6,2.23-6,4.9a3.74,3.74,0,0,0,1.14,2.78,6.66,6.66,0,0,0,3.59,1.52l4.58,0.65c3.54,0.49,5.77,1.47,7.41,3,2.07,2,3,4.79,3,8.23C967.91,48.3,961.64,52.55,953.53,52.55Z" transform="translate(-6.94 -13.11)"/><path class="cls-2" d="M988,52.55a14.21,14.21,0,0,1-10.46-4.25,11.22,11.22,0,0,1-3.16-5.83,53,53,0,0,1-.65-9.64,53,53,0,0,1,.65-9.64,11,11,0,0,1,3.16-5.83A14.21,14.21,0,0,1,988,13.11c7.46,0,13,4.36,14.27,12.26h-7.68c-0.82-3.32-2.89-5.5-6.53-5.5a6,6,0,0,0-4.85,2c-1.58,1.69-1.91,3.43-1.91,10.95s0.33,9.26,1.91,10.95a6,6,0,0,0,4.85,2c3.65,0,5.72-2.18,6.53-5.5h7.68C1001,48.19,995.41,52.55,988,52.55Z" transform="translate(-6.94 -13.11)"/><path class="cls-2" d="M1029.51,52.23V36h-13.12V52.23h-7.57V13.44h7.57V29.29h13.12V13.44h7.57V52.23h-7.57Z" transform="translate(-6.94 -13.11)"/><path class="cls-2" d="M1068.18,52.23l-2.29-6.86h-13.78l-2.34,6.86h-7.9L1056,13.44h5.94l14.16,38.79h-7.9Zm-9-27.35L1054.24,39h9.64Z" transform="translate(-6.94 -13.11)"/><path class="cls-2" d="M1088.44,20.19v9.53h15.3v6.75h-15.3V52.23h-7.57V13.44h25.54v6.75h-18Z" transform="translate(-6.94 -13.11)"/><path class="cls-2" d="M1127.82,20.19v32h-7.57v-32h-10.13V13.44h27.83v6.75h-10.13Z" transform="translate(-6.94 -13.11)"/><path class="cls-2" d="M814.81,98.13v16.1h-1.9V98.13h-5.15v-1.7H820v1.7h-5.15Z" transform="translate(-6.94 -13.11)"/><path class="cls-2" d="M833.64,114.23V106.1h-8.45v8.12h-1.9V96.43h1.9v8h8.45v-8h1.9v17.8h-1.9Z" transform="translate(-6.94 -13.11)"/><path class="cls-2" d="M854,114.23V100.7l-4.87,10.72h-1.62l-4.95-10.72v13.52h-1.9V96.43h1.9l5.8,12.62L854,96.43h1.9v17.8H854Z" transform="translate(-6.94 -13.11)"/><path class="cls-2" d="M875.49,114.23h-6.92V96.43h6.7c3.1,0,5.25,1.77,5.25,4.75a4.08,4.08,0,0,1-2.62,3.9,4.31,4.31,0,0,1,2.9,4.22C880.79,112.53,878.64,114.23,875.49,114.23Zm-0.37-16.1h-4.65v6.17h4.65c2,0,3.5-1,3.5-3.1S877.09,98.13,875.12,98.13Zm0.2,7.87h-4.85v6.52h4.85c2.2,0,3.57-1.27,3.57-3.27S877.52,106,875.32,106Z" transform="translate(-6.94 -13.11)"/><path class="cls-2" d="M892.72,114.23v-1.37a4.51,4.51,0,0,1-3.47,1.52,4.37,4.37,0,0,1-3.17-1.15,4.59,4.59,0,0,1-1.25-3.45v-7.85h1.8v7.57c0,2.17,1.15,3.27,3,3.27s3.08-1.12,3.08-3.27v-7.57h1.8v12.3h-1.77Z" transform="translate(-6.94 -13.11)"/><path class="cls-2" d="M902.87,114.37a6.77,6.77,0,0,1-5-1.77l1.2-1.2a5,5,0,0,0,3.82,1.42c2,0,3.27-.73,3.27-2.17,0-1.07-.62-1.67-2-1.8l-2-.18c-2.4-.2-3.67-1.27-3.67-3.3,0-2.25,1.9-3.6,4.52-3.6a7,7,0,0,1,4.42,1.32l-1.17,1.17a5.25,5.25,0,0,0-3.27-1c-1.8,0-2.75.77-2.75,2,0,1,.6,1.67,2.15,1.8l2,0.17c2.15,0.2,3.62,1,3.62,3.32S905.84,114.37,902.87,114.37Z" transform="translate(-6.94 -13.11)"/><path class="cls-2" d="M911.29,98.43v-2h2v2h-2Zm0.1,15.8v-12.3h1.8v12.3h-1.8Z" transform="translate(-6.94 -13.11)"/><path class="cls-2" d="M925.59,114.23v-7.57c0-2.17-1.17-3.27-3-3.27s-3,1.12-3,3.27v7.57h-1.8v-12.3h1.8v1.35a4.43,4.43,0,0,1,3.45-1.5,4.31,4.31,0,0,1,3.15,1.15,4.54,4.54,0,0,1,1.27,3.42v7.87h-1.8Z" transform="translate(-6.94 -13.11)"/><path class="cls-2" d="M932.89,108.55c0,2.7,1.27,4.25,3.62,4.25a4,4,0,0,0,3.22-1.4l1.22,1.07a5.63,5.63,0,0,1-4.5,1.9c-3.25,0-5.37-1.95-5.37-6.3,0-4,1.92-6.3,5-6.3s5,2.3,5,5.95v0.82h-8.3Zm6.12-3.4a3.16,3.16,0,0,0-5.75,0,5.18,5.18,0,0,0-.37,2h6.5A5.2,5.2,0,0,0,939,105.15Z" transform="translate(-6.94 -13.11)"/><path class="cls-2" d="M948.89,114.37a6.77,6.77,0,0,1-5-1.77l1.2-1.2a5,5,0,0,0,3.82,1.42c2,0,3.27-.73,3.27-2.17,0-1.07-.62-1.67-2-1.8l-2-.18c-2.4-.2-3.67-1.27-3.67-3.3,0-2.25,1.9-3.6,4.52-3.6a7,7,0,0,1,4.42,1.32l-1.17,1.17a5.25,5.25,0,0,0-3.27-1c-1.8,0-2.75.77-2.75,2,0,1,.6,1.67,2.15,1.8l2,0.17c2.15,0.2,3.62,1,3.62,3.32S951.87,114.37,948.89,114.37Z" transform="translate(-6.94 -13.11)"/><path class="cls-2" d="M960.89,114.37a6.77,6.77,0,0,1-5-1.77l1.2-1.2a5,5,0,0,0,3.82,1.42c2,0,3.27-.73,3.27-2.17,0-1.07-.62-1.67-2-1.8l-2-.18c-2.4-.2-3.67-1.27-3.67-3.3,0-2.25,1.9-3.6,4.52-3.6a7,7,0,0,1,4.42,1.32l-1.17,1.17a5.25,5.25,0,0,0-3.27-1c-1.8,0-2.75.77-2.75,2,0,1,.6,1.67,2.15,1.8l2,0.17c2.15,0.2,3.62,1,3.62,3.32S963.87,114.37,960.89,114.37Z" transform="translate(-6.94 -13.11)"/><path class="cls-2" d="M980.54,114.37a7.76,7.76,0,0,1-6.1-2.35l1.3-1.3a6.11,6.11,0,0,0,4.85,1.95c2.6,0,4.2-1.22,4.2-3.3a2.87,2.87,0,0,0-.85-2.22,3.84,3.84,0,0,0-2.33-.85l-2.07-.33a6.47,6.47,0,0,1-3.27-1.35,4.21,4.21,0,0,1-1.35-3.32c0-3,2.17-5,5.7-5a7.14,7.14,0,0,1,5.3,1.95l-1.22,1.22a5.61,5.61,0,0,0-4.15-1.52c-2.37,0-3.75,1.32-3.75,3.3a2.57,2.57,0,0,0,.8,2,5.12,5.12,0,0,0,2.4,1l1.95,0.3a5.73,5.73,0,0,1,3.25,1.25,4.46,4.46,0,0,1,1.5,3.52C986.69,112.45,984.24,114.37,980.54,114.37Z" transform="translate(-6.94 -13.11)"/><path class="cls-2" d="M995.12,114.37c-3.1,0-5.45-2.1-5.45-6.3s2.35-6.3,5.45-6.3a4.87,4.87,0,0,1,4,1.82l-1.22,1.15a3.37,3.37,0,0,0-2.82-1.37,3.33,3.33,0,0,0-2.85,1.4,7.2,7.2,0,0,0,0,6.6,3.33,3.33,0,0,0,2.85,1.4,3.4,3.4,0,0,0,2.82-1.4l1.22,1.17A4.87,4.87,0,0,1,995.12,114.37Z" transform="translate(-6.94 -13.11)"/><path class="cls-2" d="M1010.46,114.23v-7.6c0-2.15-1.15-3.25-3-3.25a2.9,2.9,0,0,0-3.07,3.25v7.6h-1.8V96.43h1.8v6.85a4.39,4.39,0,0,1,3.45-1.5c2.77,0,4.42,1.77,4.42,4.55v7.9h-1.8Z" transform="translate(-6.94 -13.11)"/><path class="cls-2" d="M1024.54,113a5.14,5.14,0,0,1-7,0c-1.25-1.27-1.5-3-1.5-4.9s0.25-3.62,1.5-4.9a5.14,5.14,0,0,1,7,0c1.25,1.27,1.5,3,1.5,4.9S1025.79,111.7,1024.54,113Zm-1.27-8.7a3.15,3.15,0,0,0-2.25-.9,3.1,3.1,0,0,0-2.22.9c-0.9.9-1,2.42-1,3.8s0.1,2.9,1,3.8a3.09,3.09,0,0,0,2.22.9,3.15,3.15,0,0,0,2.25-.9c0.9-.9,1-2.42,1-3.8S1024.16,105.18,1023.27,104.28Z" transform="translate(-6.94 -13.11)"/><path class="cls-2" d="M1037.79,113a5.14,5.14,0,0,1-7,0c-1.25-1.27-1.5-3-1.5-4.9s0.25-3.62,1.5-4.9a5.14,5.14,0,0,1,7,0c1.25,1.27,1.5,3,1.5,4.9S1039,111.7,1037.79,113Zm-1.27-8.7a3.15,3.15,0,0,0-2.25-.9,3.1,3.1,0,0,0-2.22.9c-0.9.9-1,2.42-1,3.8s0.1,2.9,1,3.8a3.09,3.09,0,0,0,2.22.9,3.15,3.15,0,0,0,2.25-.9c0.9-.9,1-2.42,1-3.8S1037.41,105.18,1036.52,104.28Z" transform="translate(-6.94 -13.11)"/><path class="cls-2" d="M1046.22,114.23c-2.15,0-3.12-1.4-3.12-3.27V96.43h1.8v14.45c0,1.2.4,1.8,1.65,1.8h1v1.55h-1.3Z" transform="translate(-6.94 -13.11)"/></svg>