<?xml version="1.0" encoding="UTF-8" standalone="no"?><!DOCTYPE svg PUBLIC "-//W3C//DTD SVG 1.1//EN" "http://www.w3.org/Graphics/SVG/1.1/DTD/svg11.dtd"><svg width="100%" height="100%" viewBox="0 0 439 147" version="1.1" xmlns="http://www.w3.org/2000/svg" xmlns:xlink="http://www.w3.org/1999/xlink" xml:space="preserve" xmlns:serif="http://www.serif.com/" style="fill-rule:evenodd;clip-rule:evenodd;stroke-linejoin:round;stroke-miterlimit:2;"><g><rect x="54.99" y="83.21" width="18.33" height="18.33" style="fill:#80ba27;"/><rect x="54.99" y="55.72" width="18.33" height="18.33" style="fill:#80ba27;"/><rect x="54.99" y="28.23" width="18.33" height="18.33" style="fill:#80ba27;"/><rect x="54.99" y="0.74" width="18.33" height="18.33" style="fill:#4b5c66;"/><rect x="27.49" y="28.23" width="18.33" height="18.33" style="fill:#4b5c66;"/><rect x="27.49" y="0.74" width="18.33" height="18.33" style="fill:#4b5c66;"/><rect x="0" y="28.23" width="18.33" height="18.33" style="fill:#4b5c66;"/><rect x="27.49" y="83.21" width="18.33" height="18.33" style="fill:#4b5c66;"/><rect x="27.49" y="55.72" width="18.33" height="18.33" style="fill:#4b5c66;"/><rect x="0" y="83.21" width="18.33" height="18.33" style="fill:#80ba27;"/><rect x="0" y="55.72" width="18.33" height="18.33" style="fill:#4b5c66;"/><path d="M194.41,19.06l0,82.48l-20.43,0l0,-82.48l-27.36,0l0,-18.32l75.15,0l0,18.32l-27.36,0Z" style="fill:#80ba27;fill-rule:nonzero;"/><path d="M300.56,101.54l0,-42.13l-35.44,0l0,42.13l-20.44,0l0,-100.81l20.44,0l0,40.59l35.44,0l0,-40.59l20.44,0l0,100.81l-20.44,0Z" style="fill:#80ba27;fill-rule:nonzero;"/><path d="M418.32,101.54l0,-57.12l-19.53,38.78l-14.78,0.01l-19.66,-38.79l0,57.12l-20.44,0l0,-100.81l20.15,0l27.35,56.64l27.2,-56.64l20.15,0l0,100.81l-20.44,0Z" style="fill:#80ba27;fill-rule:nonzero;"/><path d="M438.79,146.47l0,-22l-2.65,0l0,15l-5.63,-15l-2.45,0l0,22l2.65,0l0,-15l5.69,15l2.41,0l-0.02,0Zm-14.7,0l0,-2.38l-5.84,0l0,-7.48l5,0l0,-2.37l-5,0l0,-7.35l5.81,0l0,-2.38l-8.49,0l0,22l8.49,0l0.03,-0.04Zm-12.48,-5.9c0,-3.46 -0.59,-5 -3.08,-6l-2.48,-1c-1.76,-0.74 -2.1,-1.39 -2.1,-3.55c-0.072,-0.941 0.202,-1.876 0.77,-2.63c0.446,-0.461 1.069,-0.709 1.71,-0.68c0.68,-0.05 1.344,0.225 1.79,0.74c0.543,0.774 0.785,1.72 0.68,2.66l2.65,0c0,-2 -0.34,-3.43 -1.45,-4.51c-1.001,-0.888 -2.314,-1.345 -3.65,-1.27c-1.283,-0.04 -2.533,0.415 -3.49,1.27c-1.164,1.201 -1.768,2.841 -1.66,4.51c0,3.34 0.74,4.57 3,5.5l2.5,1c1.79,0.74 2.17,1.51 2.17,4c0,1.45 -0.13,2.29 -0.71,2.94c-1.059,0.919 -2.651,0.919 -3.71,0c-0.59,-0.62 -0.74,-1.42 -0.74,-2.88l-2.65,0c0,2.35 0.34,3.62 1.36,4.63c1.055,0.945 2.447,1.424 3.86,1.33c1.42,0.08 2.817,-0.397 3.89,-1.33c1,-1 1.36,-2.5 1.36,-4.79m-14.05,0c0,-3.46 -0.59,-5 -3.09,-6l-2.47,-1c-1.76,-0.74 -2.1,-1.39 -2.1,-3.55c-0.073,-0.941 0.201,-1.877 0.77,-2.63c0.443,-0.459 1.062,-0.707 1.7,-0.68c0.68,-0.05 1.344,0.225 1.79,0.74c0.544,0.774 0.786,1.72 0.68,2.66l2.65,0c0,-2 -0.34,-3.43 -1.45,-4.51c-1.001,-0.888 -2.314,-1.345 -3.65,-1.27c-1.283,-0.04 -2.533,0.415 -3.49,1.27c-1.164,1.201 -1.768,2.841 -1.66,4.51c0,3.34 0.74,4.57 3,5.5l2.5,1c1.79,0.74 2.17,1.51 2.17,4c0,1.45 -0.13,2.29 -0.71,2.94c-1.059,0.919 -2.651,0.919 -3.71,0c-0.59,-0.62 -0.74,-1.42 -0.74,-2.88l-2.71,0c0,2.35 0.34,3.62 1.36,4.63c1.055,0.945 2.447,1.424 3.86,1.33c1.42,0.08 2.817,-0.397 3.89,-1.33c1,-1 1.36,-2.5 1.36,-4.79m-13.85,5.9l0,-2.26l-5.84,0l0,-7.48l5,0l0,-2.37l-5,0l0,-7.35l5.84,0l0,-2.38l-8.5,0l0,22l8.5,0l0,-0.16Zm-13,0l0,-22l-2.62,0l0,9.61l-4.88,0l0,-9.61l-2.65,0l0,22l2.65,0l0,-10l4.88,0l0,10l2.65,0l-0.03,0Zm-13.85,0l0,-2.26l-5.84,0l0,-19.62l-2.65,0l0,22l8.49,0l0,-0.12Zm-12.44,0l0,-2.26l-5.84,0l0,-7.48l5,0l0,-2.37l-5,0l0,-7.35l5.84,0l0,-2.38l-8.49,0l0,22l8.49,0l0,-0.16Zm-12.14,-19.46l0,-2.38l-10,0l0,2.38l3.71,0l0,19.62l2.65,0l0,-19.62l3.68,0l-0.04,0Zm-13,0l0,-2.38l-10,0l0,2.38l3.71,0l0,19.62l2.65,0l0,-19.62l3.68,0l-0.04,0Zm-13.68,-2.38l-2.65,0l0,22l2.65,0l0,-22Zm-7.07,22l0,-22l-2.5,0l-4.42,12.23l-4.52,-12.27l-2.5,0l0,22l2.65,0l0,-15.41l3.43,10l1.64,0l3.49,-10.29l0,15.66l2.65,0l0.08,0.08Zm-24.69,0l0,-2.42l-5.84,0l0,-7.48l5,0l0,-2.37l-5,0l0,-7.35l5.84,0l0,-2.38l-8.49,0l0,22l8.49,0Zm-12.15,0l0,-2.42l-5.84,0l0,-19.62l-2.65,0l0,22l8.49,0l0,0.04Zm-12.92,-5l0,-17l-2.68,0l0,17.15c0.007,0.073 0.01,0.147 0.01,0.221c0,1.338 -1.101,2.44 -2.44,2.44c-1.339,0 -2.44,-1.102 -2.44,-2.44c0,-0.074 0.003,-0.148 0.01,-0.221l0,-17.19l-2.64,0l0,17c-0.059,1.406 0.453,2.778 1.42,3.8c0.965,0.958 2.281,1.482 3.64,1.45c1.371,0.031 2.699,-0.492 3.68,-1.45c0.966,-1.023 1.478,-2.394 1.42,-3.8m-14.59,5l0,-22l-2.65,0l0,9.61l-4.88,0l0,-9.61l-2.65,0l0,22l2.65,0l0,-10l4.88,0l0,10l2.65,0Zm-13.93,-5.44l-2.62,0c0.021,0.898 -0.226,1.783 -0.71,2.54c-0.422,0.515 -1.065,0.801 -1.73,0.77c-0.709,0.041 -1.394,-0.27 -1.83,-0.83c-0.77,-1.05 -0.89,-2.81 -0.89,-8c0,-5.19 0.12,-7 0.89,-8c0.436,-0.56 1.121,-0.871 1.83,-0.83c0.666,-0.033 1.309,0.254 1.73,0.77c0.497,0.736 0.746,1.612 0.71,2.5l2.63,0c0.064,-1.602 -0.5,-3.167 -1.57,-4.36c-2.107,-1.828 -5.316,-1.69 -7.26,0.31c-1.45,1.67 -1.61,3.55 -1.61,9.64c0,6.09 0.16,8 1.61,9.64c0.95,1.075 2.337,1.664 3.77,1.6c1.245,0.053 2.464,-0.377 3.4,-1.2c1.139,-1.206 1.741,-2.823 1.67,-4.48m-13.81,-0.46c0,-3.46 -0.59,-5 -3.09,-6l-2.48,-1c-1.76,-0.74 -2.1,-1.39 -2.1,-3.55c-0.074,-0.941 0.2,-1.877 0.77,-2.63c0.442,-0.46 1.062,-0.708 1.7,-0.68c0.683,-0.051 1.351,0.223 1.8,0.74c0.543,0.774 0.785,1.72 0.68,2.66l2.65,0c0,-2 -0.34,-3.43 -1.45,-4.51c-1.001,-0.888 -2.314,-1.345 -3.65,-1.27c-1.283,-0.04 -2.533,0.415 -3.49,1.27c-1.168,1.199 -1.775,2.839 -1.67,4.51c0,3.34 0.74,4.57 3,5.5l2.5,1c1.79,0.74 2.16,1.51 2.16,4c0,1.45 -0.12,2.29 -0.71,2.94c-1.059,0.919 -2.651,0.919 -3.71,0c-0.59,-0.62 -0.74,-1.42 -0.74,-2.88l-2.65,0c0,2.35 0.34,3.62 1.36,4.63c1.058,0.946 2.454,1.426 3.87,1.33c1.42,0.08 2.817,-0.397 3.89,-1.33c1,-1 1.36,-2.5 1.36,-4.79m-14.35,5.89l0,-22l-2.7,0l0,9.61l-4.88,0l0,-9.61l-2.65,0l0,22l2.65,0l0,-10l4.88,0l0,10l2.7,0Zm-14.1,-5.44l-2.62,0c0.02,0.898 -0.227,1.782 -0.71,2.54c-0.421,0.516 -1.064,0.803 -1.73,0.77c-0.705,0.038 -1.386,-0.273 -1.82,-0.83c-0.77,-1.05 -0.89,-2.81 -0.89,-8c0,-5.19 0.12,-7 0.89,-8c0.434,-0.557 1.115,-0.868 1.82,-0.83c0.666,-0.033 1.309,0.254 1.73,0.77c0.497,0.736 0.746,1.612 0.71,2.5l2.62,0c0.065,-1.602 -0.499,-3.167 -1.57,-4.36c-2.107,-1.828 -5.316,-1.69 -7.26,0.31c-1.45,1.67 -1.6,3.55 -1.6,9.64c0,6.09 0.16,8 1.6,9.64c0.95,1.075 2.337,1.664 3.77,1.6c1.245,0.053 2.464,-0.377 3.4,-1.2c1.139,-1.206 1.741,-2.823 1.67,-4.48m-16.91,-5.63c0,5.22 -0.15,7 -0.93,8c-0.42,0.558 -1.093,0.87 -1.79,0.83c-0.705,0.038 -1.386,-0.273 -1.82,-0.83c-0.77,-1.05 -0.9,-2.81 -0.9,-8c0,-5.19 0.13,-7 0.9,-8c0.434,-0.557 1.115,-0.868 1.82,-0.83c0.697,-0.04 1.37,0.272 1.79,0.83c0.78,1.05 0.93,2.81 0.93,8m2.65,0c0,-6.09 -0.18,-8.07 -1.6,-9.64c-0.986,-1.025 -2.348,-1.605 -3.77,-1.605c-1.422,0 -2.784,0.58 -3.77,1.605c-1.42,1.58 -1.61,3.55 -1.61,9.64c0,6.09 0.19,8.06 1.61,9.64c0.986,1.025 2.348,1.605 3.77,1.605c1.422,0 2.784,-0.58 3.77,-1.605c1.42,-1.58 1.6,-3.55 1.6,-9.64m-14.77,11l0,-22l-2.65,0l0,9.61l-4.89,0l0,-9.61l-2.65,0l0,22l2.65,0l0,-10l4.89,0l0,10l2.65,0Zm-21,0l0,-2.38l-5.88,0l0,-7.48l5,0l0,-2.37l-5,0l0,-7.35l5.84,0l0,-2.38l-8.49,0l0,22l8.49,0l0.04,-0.04Zm-13,0l0,-22l-2.65,0l0,9.61l-4.93,0l0,-9.61l-2.65,0l0,22l2.65,0l0,-10l4.88,0l0,10l2.7,0Zm-13.93,-5.44l-2.62,0c0.02,0.898 -0.227,1.782 -0.71,2.54c-0.422,0.515 -1.065,0.801 -1.73,0.77c-0.705,0.038 -1.386,-0.273 -1.82,-0.83c-0.77,-1.05 -0.9,-2.81 -0.9,-8c0,-5.19 0.12,-7 0.9,-8c0.434,-0.557 1.115,-0.868 1.82,-0.83c0.666,-0.033 1.309,0.254 1.73,0.77c0.494,0.737 0.743,1.613 0.71,2.5l2.62,0c0.065,-1.602 -0.499,-3.167 -1.57,-4.36c-2.107,-1.828 -5.316,-1.69 -7.26,0.31c-1.45,1.67 -1.6,3.55 -1.6,9.64c0,6.09 0.15,8 1.6,9.64c0.949,1.076 2.337,1.665 3.77,1.6c1.245,0.052 2.463,-0.378 3.4,-1.2c1.139,-1.206 1.741,-2.823 1.67,-4.48m-13.81,-0.46c0,-3.46 -0.59,-5 -3.09,-6l-2.47,-1c-1.76,-0.74 -2.1,-1.39 -2.1,-3.55c-0.074,-0.941 0.2,-1.877 0.77,-2.63c0.442,-0.46 1.062,-0.708 1.7,-0.68c0.679,-0.048 1.343,0.226 1.79,0.74c0.543,0.774 0.785,1.72 0.68,2.66l2.57,0c0,-2 -0.34,-3.43 -1.45,-4.51c-1,-0.889 -2.314,-1.346 -3.65,-1.27c-1.283,-0.04 -2.533,0.415 -3.49,1.27c-1.168,1.199 -1.775,2.839 -1.67,4.51c0,3.34 0.74,4.57 3,5.5l2.51,1c1.79,0.74 2.16,1.51 2.16,4c0,1.45 -0.12,2.29 -0.71,2.94c-1.059,0.919 -2.651,0.919 -3.71,0c-0.59,-0.62 -0.74,-1.42 -0.74,-2.88l-2.63,0c0,2.35 0.34,3.62 1.36,4.63c1.055,0.945 2.447,1.424 3.86,1.33c1.42,0.08 2.817,-0.397 3.89,-1.33c1,-1 1.36,-2.5 1.36,-4.79m-14.37,-16.1l-2.66,0l0,22l2.65,0l0,-22l0.01,0Zm-7.54,22l0,-22l-2.65,0l0,15l-5.63,-15l-2.47,0l0,22l2.65,0l0,-15l5.69,15l2.41,0Zm-15.28,0l0,-22l-2.65,0l0,9.61l-4.89,0l0,-9.61l-2.65,0l0,22l2.65,0l0,-10l4.89,0l0,10l2.65,0Zm-14.1,-5.44l-2.62,0c0.019,0.898 -0.228,1.782 -0.71,2.54c-0.422,0.515 -1.065,0.801 -1.73,0.77c-0.705,0.038 -1.386,-0.273 -1.82,-0.83c-0.77,-1.05 -0.9,-2.81 -0.9,-8c0,-5.19 0.12,-7 0.9,-8c0.434,-0.557 1.115,-0.868 1.82,-0.83c0.666,-0.033 1.309,0.254 1.73,0.77c0.494,0.737 0.743,1.613 0.71,2.5l2.62,0c0.066,-1.602 -0.498,-3.168 -1.57,-4.36c-0.937,-0.889 -2.2,-1.356 -3.49,-1.29c-1.433,-0.064 -2.82,0.525 -3.77,1.6c-1.45,1.67 -1.6,3.55 -1.6,9.64c0,6.09 0.16,8 1.6,9.64c0.95,1.075 2.337,1.664 3.77,1.6c1.245,0.052 2.463,-0.378 3.4,-1.2c1.135,-1.207 1.734,-2.824 1.66,-4.48m-13.69,5.44l0,-2.46l-5.83,0l0,-7.48l5,0l0,-2.37l-5,0l0,-7.35l5.84,0l0,-2.38l-8.5,0l0,22l8.49,0l0,0.04Zm-12.11,-19.66l0,-2.38l-10,0l0,2.38l3.71,0l0,19.62l2.59,0l0,-19.62l3.7,0Z" style="fill:#4b5c66;fill-rule:nonzero;"/><rect x="108.76" y="0.74" width="2.46" height="100.79" style="fill:#4b5c66;"/></g></svg>