<?xml version="1.0" encoding="UTF-8" standalone="no"?><!DOCTYPE svg PUBLIC "-//W3C//DTD SVG 1.1//EN" "http://www.w3.org/Graphics/SVG/1.1/DTD/svg11.dtd"><svg width="100%" height="100%" viewBox="0 0 262 93" version="1.1" xmlns="http://www.w3.org/2000/svg" xmlns:xlink="http://www.w3.org/1999/xlink" xml:space="preserve" xmlns:serif="http://www.serif.com/" style="fill-rule:evenodd;clip-rule:evenodd;"><g><path d="M87.183,8.494l4.369,14.779l4.329,-14.779l10.067,0l-10.177,26.695l-8.401,0l-10.252,-26.695l10.065,0Z" style="fill:#1d1d1b;fill-rule:nonzero;"/><rect x="107.894" y="8.493" width="9.54" height="26.695" style="fill:#1d1d1b;"/><path d="M138.882,18.643c-1.556,-1.372 -3.073,-2.044 -4.775,-2.044c-3.037,0 -5.369,2.306 -5.369,5.276c0,2.974 2.295,5.203 5.332,5.203c1.739,0 3.183,-0.555 4.812,-1.71l0,9.43c-2.702,0.663 -4.33,0.921 -6.033,0.921c-7.989,0 -13.942,-5.835 -13.942,-13.547c0,-7.827 6.138,-14.064 13.829,-14.064c1.296,0 2.741,0.183 4.221,0.479c0.628,0.113 0.998,0.222 1.925,0.482l0,9.574Z" style="fill:#1d1d1b;fill-rule:nonzero;"/><path d="M141.284,8.494l20.227,0l0,8.716l-5.403,-0.298l0,18.277l-9.494,0l0,-18.316l-5.33,0.189l0,-8.568Z" style="fill:#1d1d1b;fill-rule:nonzero;"/><path d="M176.669,16.539c2.694,0 4.688,2.268 4.688,5.313c0,3.121 -1.957,5.388 -4.688,5.388c-2.767,0 -4.762,-2.267 -4.762,-5.35c0,-3.083 1.995,-5.351 4.762,-5.351m-14.496,5.351c0,8.302 5.85,13.878 14.496,13.878c8.612,0 14.463,-5.576 14.463,-13.878c0,-8.304 -5.851,-13.879 -14.463,-13.879c-8.646,0 -14.496,5.575 -14.496,13.879" style="fill:#1d1d1b;fill-rule:nonzero;"/><path d="M203.339,15.69l1.254,0c1.587,0 2.624,0.927 2.624,2.342c0,1.486 -0.999,2.379 -2.624,2.379l-1.254,0l0,-4.721Zm-9.625,19.499l9.589,0l0,-6.206c0,-0.073 -0.037,-0.405 -0.075,-0.85c-0.111,-0.996 -0.182,-1.589 -0.368,-2.925c0.553,1.336 0.85,1.929 1.183,2.668l0.366,0.773l3.214,6.54l11.041,0l-6.929,-10.43c3.228,-1.075 4.856,-3.456 4.856,-7.177c0,-5.253 -4.334,-9.088 -10.3,-9.088l-12.577,0l0,26.695Z" style="fill:#1d1d1b;fill-rule:nonzero;"/><rect x="220.92" y="8.493" width="9.542" height="26.695" style="fill:#1d1d1b;"/><path d="M246.623,17.508l1.996,7.975l-4.034,0l2.038,-7.975Zm-14.695,17.681l10.068,0l0.998,-3.398l7.289,0l1.004,3.398l10.065,0l-9.216,-26.696l-10.994,0l-9.214,26.696Z" style="fill:#1d1d1b;fill-rule:nonzero;"/><path d="M98.736,55.208c0,1.184 -0.117,2.251 -0.384,3.194c-0.975,3.574 -4.371,5.61 -9.366,5.61c-2.835,0 -5.428,-0.769 -7.105,-2.069c-1.74,-1.445 -2.623,-3.629 -2.623,-6.735l0,-12.907l7.569,0l0,11.986c0,1.067 0.06,1.69 0.207,1.985c0.268,0.711 1.064,1.158 1.952,1.158c0.561,0 1.006,-0.151 1.39,-0.447c0.649,-0.444 0.798,-0.918 0.798,-2.696l0,-11.986l7.562,0l0,12.907Z" style="fill:#1d1d1b;fill-rule:nonzero;"/><path d="M101.215,42.301l7.6,0l6.6,10.807l0,-10.807l7.508,0l0,21.289l-7.771,0l-6.368,-10.482l0,10.482l-7.569,0l0,-21.289Z" style="fill:#1d1d1b;fill-rule:nonzero;"/><rect x="125.415" y="42.301" width="7.608" height="21.289" style="fill:#1d1d1b;"/><path d="M141.982,42.301l3.484,11.787l3.453,-11.787l8.027,0l-8.116,21.289l-6.699,0l-8.174,-21.289l8.025,0Z" style="fill:#1d1d1b;fill-rule:nonzero;"/><path d="M157.762,42.301l14.165,0l0,5.738l-6.523,0l0,2.026l5.934,0l0,5.56l-5.934,0l0,2.002l6.7,0l0,5.963l-14.342,0l0,-21.289Z" style="fill:#1d1d1b;fill-rule:nonzero;"/><path d="M181.779,48.038l1.003,0c1.266,0 2.089,0.741 2.089,1.87c0,1.185 -0.795,1.897 -2.089,1.897l-1.003,0l0,-3.767Zm-7.677,15.552l7.65,0l0,-4.947c0,-0.062 -0.03,-0.326 -0.06,-0.679c-0.087,-0.797 -0.148,-1.267 -0.294,-2.333c0.442,1.066 0.675,1.536 0.942,2.127l0.295,0.617l2.561,5.215l8.805,0l-5.525,-8.317c2.572,-0.859 3.872,-2.755 3.872,-5.721c0,-4.192 -3.459,-7.251 -8.215,-7.251l-10.031,0l0,21.289Z" style="fill:#1d1d1b;fill-rule:nonzero;"/><path d="M196.391,55.965c1.891,1.483 3.543,2.192 5.197,2.192c1.125,0 1.933,-0.503 1.933,-1.244c0,-0.416 -0.3,-0.799 -0.747,-0.948c-0.27,-0.119 -0.477,-0.177 -1.658,-0.355c-1.269,-0.238 -1.921,-0.383 -2.48,-0.59c-2.423,-0.83 -3.841,-2.875 -3.841,-5.482c0,-4.426 3.724,-7.546 9.052,-7.546c2.481,0 4.461,0.561 6.884,1.914l-2.128,5.397c-1.449,-1.127 -2.869,-1.632 -4.345,-1.632c-1.064,0 -1.783,0.445 -1.783,1.097c0,0.563 0.447,0.859 1.693,1.096l1.391,0.327c1.538,0.383 2.216,0.622 3.044,1.064c1.743,1.009 2.75,2.874 2.75,5.152c0,4.548 -3.727,7.607 -9.232,7.607c-1.98,0 -4.164,-0.443 -6.054,-1.178c-0.712,-0.266 -1.122,-0.439 -2.068,-0.97l2.392,-5.901Z" style="fill:#1d1d1b;fill-rule:nonzero;"/><rect x="212.621" y="42.301" width="7.605" height="21.289" style="fill:#1d1d1b;"/><path d="M222.015,42.301l16.125,0l0,6.951l-4.308,-0.237l0,14.575l-7.569,0l0,-14.605l-4.248,0.147l0,-6.831Z" style="fill:#1d1d1b;fill-rule:nonzero;"/><path d="M247.477,42.301l2.451,5.42l2.449,-5.42l8.619,0l-7.228,12.172l0,9.117l-7.682,0l0,-9.117l-7.23,-12.172l8.621,0Z" style="fill:#1d1d1b;fill-rule:nonzero;"/><path d="M32.23,1.892c0.271,-0.186 0.62,-0.21 0.909,-0.07c-0.161,-0.251 -0.226,-0.543 -0.195,-0.829c-0.148,0.028 -0.296,0.031 -0.443,0.008l-0.006,0.008c0.024,0.31 -0.064,0.625 -0.265,0.883" style="fill:#0070ba;fill-rule:nonzero;"/><path d="M2.176,32.883c-0.175,-0.298 -0.165,-0.675 0.032,-0.966c-0.259,0.204 -0.578,0.293 -0.889,0.271l-0.07,0.068c0.019,0.122 0.019,0.244 0.002,0.368l0.026,0.026c0.311,-0.038 0.633,0.041 0.899,0.233" style="fill:#0070ba;fill-rule:nonzero;"/><path d="M62.68,32.968c-0.338,0.165 -0.755,0.107 -1.037,-0.172c-0.354,-0.354 -0.354,-0.928 0,-1.281c0.287,-0.286 0.716,-0.342 1.055,-0.165c-0.159,-0.248 -0.225,-0.54 -0.197,-0.824l-0.062,-0.064c-0.285,0.027 -0.576,-0.037 -0.826,-0.197c0.174,0.339 0.121,0.767 -0.166,1.055c-0.353,0.354 -0.926,0.354 -1.282,0c-0.352,-0.356 -0.352,-0.927 0,-1.283c0.287,-0.285 0.718,-0.34 1.057,-0.163c-0.158,-0.25 -0.225,-0.541 -0.196,-0.826l-0.07,-0.069c-0.284,0.028 -0.573,-0.036 -0.821,-0.196c0.177,0.341 0.124,0.772 -0.163,1.059c-0.355,0.354 -0.929,0.354 -1.281,0c-0.355,-0.353 -0.355,-0.927 0,-1.28c0.284,-0.285 0.711,-0.34 1.053,-0.166c-0.164,-0.25 -0.229,-0.544 -0.203,-0.828l-0.058,-0.062c-0.283,0.03 -0.575,-0.037 -0.824,-0.198c0.176,0.342 0.123,0.774 -0.164,1.057c-0.354,0.355 -0.927,0.355 -1.28,0c-0.356,-0.352 -0.356,-0.926 0,-1.279c0.284,-0.287 0.713,-0.343 1.054,-0.166c-0.161,-0.25 -0.228,-0.543 -0.199,-0.826l-0.061,-0.063c-0.284,0.029 -0.577,-0.036 -0.825,-0.196c0.176,0.34 0.121,0.769 -0.164,1.056c-0.356,0.352 -0.928,0.352 -1.282,0c-0.354,-0.354 -0.354,-0.927 0,-1.284c0.285,-0.285 0.714,-0.339 1.057,-0.162c-0.16,-0.25 -0.226,-0.542 -0.197,-0.824l-0.069,-0.069c-0.283,0.03 -0.575,-0.037 -0.824,-0.195c0.176,0.34 0.122,0.771 -0.164,1.055c-0.352,0.354 -0.925,0.354 -1.279,0c-0.354,-0.353 -0.354,-0.927 0,-1.28c0.283,-0.285 0.713,-0.34 1.054,-0.163c-0.16,-0.25 -0.228,-0.544 -0.199,-0.829l-0.066,-0.068c-0.282,0.029 -0.574,-0.035 -0.822,-0.193c0.177,0.342 0.124,0.771 -0.163,1.058c-0.354,0.353 -0.927,0.353 -1.282,0c-0.352,-0.354 -0.352,-0.927 0,-1.282c0.286,-0.283 0.712,-0.339 1.052,-0.165c-0.16,-0.25 -0.226,-0.543 -0.198,-0.831l-0.06,-0.059c-0.286,0.028 -0.576,-0.036 -0.825,-0.197c0.177,0.342 0.122,0.771 -0.163,1.058c-0.354,0.354 -0.927,0.354 -1.282,0c-0.353,-0.353 -0.353,-0.928 0,-1.283c0.287,-0.284 0.716,-0.337 1.055,-0.163c-0.161,-0.25 -0.227,-0.544 -0.198,-0.828l-0.061,-0.06c-0.284,0.029 -0.576,-0.037 -0.826,-0.197c0.176,0.339 0.122,0.767 -0.166,1.056c-0.352,0.353 -0.926,0.353 -1.281,0c-0.353,-0.356 -0.353,-0.928 0,-1.283c0.287,-0.285 0.716,-0.34 1.057,-0.163c-0.158,-0.251 -0.226,-0.54 -0.195,-0.827l-0.051,-0.05c-0.289,0.03 -0.585,-0.039 -0.838,-0.202c0.173,0.339 0.117,0.764 -0.167,1.046c-0.353,0.356 -0.928,0.356 -1.281,0c-0.354,-0.353 -0.354,-0.927 0,-1.28c0.287,-0.289 0.721,-0.342 1.064,-0.161c-0.155,-0.245 -0.219,-0.536 -0.192,-0.816l-0.083,-0.081c-0.281,0.027 -0.573,-0.037 -0.821,-0.196c0.176,0.341 0.123,0.772 -0.164,1.058c-0.352,0.354 -0.927,0.354 -1.279,0c-0.356,-0.353 -0.356,-0.927 0,-1.28c0.283,-0.287 0.711,-0.34 1.052,-0.166c-0.162,-0.25 -0.229,-0.544 -0.201,-0.83l-0.064,-0.064c-0.28,0.028 -0.572,-0.037 -0.821,-0.196c0.178,0.343 0.124,0.774 -0.162,1.06c-0.356,0.353 -0.927,0.353 -1.281,0c-0.355,-0.355 -0.355,-0.926 0,-1.28c0.284,-0.287 0.712,-0.34 1.051,-0.166c-0.161,-0.251 -0.228,-0.545 -0.199,-0.831l-0.063,-0.063c-0.284,0.028 -0.576,-0.037 -0.822,-0.195c0.178,0.342 0.123,0.772 -0.164,1.058c-0.353,0.353 -0.926,0.353 -1.28,0c-0.354,-0.354 -0.354,-0.926 0,-1.281c0.285,-0.284 0.712,-0.339 1.053,-0.165c-0.161,-0.25 -0.229,-0.544 -0.199,-0.83l-0.058,-0.056c-0.285,0.027 -0.577,-0.039 -0.826,-0.198c0.174,0.34 0.119,0.769 -0.165,1.054c-0.355,0.354 -0.928,0.354 -1.281,0c-0.354,-0.354 -0.354,-0.926 0,-1.28c0.286,-0.285 0.715,-0.342 1.055,-0.166c-0.157,-0.249 -0.224,-0.54 -0.195,-0.824l-0.062,-0.061c-0.286,0.029 -0.579,-0.036 -0.829,-0.199c0.175,0.34 0.12,0.769 -0.164,1.054c-0.355,0.354 -0.928,0.354 -1.283,0c-0.353,-0.353 -0.353,-0.928 0,-1.28c0.287,-0.287 0.718,-0.342 1.06,-0.163c-0.159,-0.25 -0.225,-0.54 -0.196,-0.824l-0.073,-0.075c-0.284,0.03 -0.573,-0.036 -0.822,-0.194c0.177,0.342 0.123,0.772 -0.163,1.06c-0.355,0.354 -0.928,0.354 -1.283,0c-0.352,-0.355 -0.352,-0.928 0,-1.28c0.286,-0.287 0.714,-0.342 1.055,-0.167c-0.162,-0.25 -0.23,-0.544 -0.2,-0.829l-0.037,-0.039c-0.291,0.029 -0.59,-0.039 -0.842,-0.207c0.17,0.34 0.113,0.762 -0.17,1.046c-0.353,0.354 -0.928,0.354 -1.28,0c-0.355,-0.355 -0.355,-0.929 0,-1.282c0.289,-0.289 0.724,-0.342 1.068,-0.158c-0.154,-0.245 -0.218,-0.534 -0.19,-0.811l-0.082,-0.083c-0.284,0.028 -0.579,-0.038 -0.826,-0.199c0.173,0.342 0.119,0.77 -0.166,1.056c-0.353,0.353 -0.927,0.353 -1.281,0c-0.354,-0.353 -0.354,-0.927 0,-1.281c0.284,-0.287 0.716,-0.343 1.056,-0.163c-0.16,-0.25 -0.225,-0.541 -0.197,-0.826l-0.071,-0.071c-0.281,0.03 -0.571,-0.037 -0.819,-0.195c0.176,0.342 0.123,0.773 -0.164,1.059c-0.355,0.353 -0.928,0.353 -1.281,0c-0.356,-0.353 -0.356,-0.926 0,-1.28c0.285,-0.286 0.713,-0.341 1.051,-0.166c-0.161,-0.251 -0.226,-0.544 -0.2,-0.83l-0.05,-0.051c-0.28,0.033 -0.571,-0.026 -0.82,-0.177c0.159,0.336 0.101,0.749 -0.177,1.029c-0.352,0.354 -0.926,0.354 -1.281,0c-0.354,-0.355 -0.354,-0.928 0,-1.283c0.277,-0.276 0.691,-0.336 1.025,-0.176c-0.15,-0.253 -0.211,-0.543 -0.178,-0.825l-0.055,-0.055c-0.285,0.036 -0.578,-0.025 -0.829,-0.179c0.172,0.34 0.116,0.765 -0.167,1.051c-0.354,0.353 -0.928,0.353 -1.282,0c-0.314,-0.314 -0.348,-0.801 -0.105,-1.153c-0.259,0.199 -0.576,0.289 -0.888,0.265l-0.116,0.116c0.026,0.308 -0.062,0.621 -0.259,0.879c0.352,-0.249 0.842,-0.214 1.16,0.1c0.353,0.354 0.353,0.929 0,1.282c-0.354,0.353 -0.927,0.353 -1.282,0c-0.312,-0.312 -0.347,-0.796 -0.11,-1.15c-0.259,0.205 -0.577,0.295 -0.889,0.271l-0.106,0.104c0.023,0.31 -0.064,0.624 -0.263,0.882c0.355,-0.248 0.844,-0.215 1.161,0.101c0.353,0.354 0.353,0.927 0,1.283c-0.354,0.353 -0.927,0.353 -1.282,0c-0.312,-0.315 -0.348,-0.799 -0.107,-1.152c-0.259,0.204 -0.578,0.293 -0.891,0.269l-0.114,0.114c0.023,0.308 -0.063,0.62 -0.259,0.876c0.353,-0.251 0.846,-0.217 1.162,0.1c0.355,0.354 0.355,0.926 0,1.28c-0.353,0.354 -0.926,0.354 -1.279,0c-0.313,-0.31 -0.35,-0.794 -0.112,-1.145c-0.26,0.205 -0.579,0.296 -0.894,0.271l-0.105,0.106c0.023,0.306 -0.065,0.621 -0.26,0.878c0.353,-0.25 0.845,-0.218 1.162,0.099c0.353,0.353 0.353,0.928 0,1.281c-0.354,0.354 -0.928,0.354 -1.281,0c-0.313,-0.311 -0.349,-0.794 -0.111,-1.147c-0.26,0.205 -0.581,0.295 -0.892,0.272l-0.08,0.078c0.024,0.313 -0.068,0.633 -0.272,0.894c0.353,-0.238 0.833,-0.2 1.146,0.111c0.353,0.354 0.353,0.928 0,1.282c-0.355,0.351 -0.927,0.351 -1.281,0c-0.316,-0.319 -0.348,-0.81 -0.098,-1.165c-0.257,0.198 -0.569,0.283 -0.877,0.261l-0.128,0.129c0.022,0.308 -0.065,0.623 -0.264,0.882c0.353,-0.248 0.844,-0.215 1.159,0.101c0.353,0.353 0.353,0.927 0,1.281c-0.354,0.354 -0.928,0.354 -1.282,0c-0.313,-0.313 -0.348,-0.799 -0.107,-1.15c-0.259,0.202 -0.577,0.291 -0.89,0.267l-0.089,0.09c0.024,0.313 -0.065,0.632 -0.269,0.891c0.352,-0.238 0.835,-0.201 1.146,0.11c0.355,0.354 0.355,0.928 0,1.281c-0.352,0.354 -0.926,0.354 -1.28,0c-0.316,-0.317 -0.349,-0.808 -0.099,-1.16c-0.258,0.196 -0.57,0.282 -0.88,0.259l-0.123,0.123c0.025,0.31 -0.063,0.625 -0.263,0.884c0.352,-0.246 0.842,-0.212 1.157,0.103c0.353,0.353 0.353,0.927 0,1.282c-0.355,0.352 -0.929,0.352 -1.281,0c-0.314,-0.315 -0.349,-0.8 -0.107,-1.153c-0.258,0.2 -0.575,0.29 -0.887,0.266l-0.095,0.095c0.023,0.313 -0.067,0.63 -0.269,0.892c0.353,-0.241 0.836,-0.205 1.149,0.108c0.352,0.353 0.352,0.927 0,1.28c-0.354,0.354 -0.927,0.354 -1.281,0c-0.314,-0.316 -0.349,-0.805 -0.101,-1.159c-0.256,0.197 -0.571,0.284 -0.881,0.26l-0.115,0.117c0.023,0.312 -0.065,0.626 -0.266,0.884c0.353,-0.242 0.841,-0.209 1.154,0.107c0.355,0.354 0.355,0.927 0,1.281c-0.353,0.355 -0.927,0.355 -1.281,0c-0.313,-0.315 -0.348,-0.802 -0.103,-1.155c-0.259,0.2 -0.576,0.289 -0.885,0.263l-0.113,0.114c0.026,0.309 -0.065,0.626 -0.263,0.883c0.353,-0.246 0.842,-0.211 1.155,0.104c0.356,0.353 0.356,0.927 0,1.28c-0.352,0.354 -0.926,0.354 -1.28,0c-0.313,-0.312 -0.349,-0.799 -0.105,-1.152c-0.26,0.202 -0.577,0.291 -0.888,0.266l-0.102,0.101c0.024,0.312 -0.066,0.629 -0.266,0.888c0.352,-0.243 0.84,-0.208 1.153,0.106c0.353,0.353 0.353,0.927 0,1.281c-0.355,0.353 -0.929,0.353 -1.281,0c-0.315,-0.315 -0.349,-0.804 -0.104,-1.155c-0.26,0.2 -0.574,0.286 -0.884,0.264l-0.095,0.097c0.022,0.314 -0.069,0.632 -0.274,0.892c0.354,-0.238 0.836,-0.202 1.148,0.111c0.353,0.353 0.353,0.927 0,1.28c-0.354,0.352 -0.927,0.352 -1.282,0c-0.315,-0.318 -0.347,-0.808 -0.097,-1.161c-0.257,0.195 -0.572,0.282 -0.878,0.259l-0.123,0.122c0.022,0.312 -0.065,0.626 -0.265,0.886c0.355,-0.246 0.842,-0.212 1.155,0.103c0.355,0.352 0.355,0.927 0,1.281c-0.353,0.353 -0.925,0.353 -1.281,0c-0.313,-0.315 -0.348,-0.801 -0.104,-1.153c-0.26,0.2 -0.577,0.289 -0.886,0.263l-0.098,0.098c0.024,0.314 -0.065,0.633 -0.269,0.893c0.352,-0.242 0.837,-0.205 1.149,0.107c0.355,0.354 0.355,0.928 0,1.28c-0.354,0.354 -0.927,0.354 -1.281,0c-0.315,-0.315 -0.349,-0.805 -0.101,-1.158c-0.257,0.197 -0.571,0.285 -0.88,0.262l-0.109,0.108c0.023,0.314 -0.066,0.631 -0.268,0.89c0.352,-0.241 0.836,-0.204 1.151,0.108c0.352,0.353 0.352,0.927 0,1.28c-0.355,0.354 -0.928,0.354 -1.282,0c-0.316,-0.314 -0.348,-0.805 -0.101,-1.159c-0.258,0.2 -0.574,0.288 -0.884,0.265l-0.133,0.135c0.023,0.305 -0.063,0.615 -0.257,0.872c0.352,-0.252 0.848,-0.222 1.167,0.096c0.354,0.354 0.354,0.928 0,1.281c-0.356,0.352 -0.928,0.352 -1.283,0c-0.308,-0.31 -0.345,-0.789 -0.112,-1.141c-0.262,0.207 -0.582,0.297 -0.899,0.274l-0.083,0.082c0.023,0.312 -0.066,0.629 -0.265,0.887c0.353,-0.242 0.839,-0.208 1.152,0.107c0.355,0.352 0.355,0.927 0,1.281c-0.354,0.353 -0.926,0.353 -1.282,0c-0.313,-0.315 -0.347,-0.805 -0.103,-1.155c-0.257,0.198 -0.574,0.287 -0.883,0.264l-0.11,0.108c0.024,0.311 -0.064,0.627 -0.264,0.886c0.35,-0.244 0.839,-0.209 1.152,0.105c0.356,0.354 0.356,0.928 0,1.28c-0.352,0.355 -0.927,0.355 -1.279,0c-0.316,-0.313 -0.35,-0.8 -0.106,-1.153c-0.258,0.199 -0.576,0.289 -0.885,0.266l-0.117,0.117c0.023,0.305 -0.064,0.622 -0.262,0.879c0.353,-0.248 0.845,-0.216 1.161,0.101c0.353,0.353 0.353,0.927 0,1.281c-0.303,0.299 -0.765,0.344 -1.112,0.13c0.18,0.262 0.252,0.577 0.217,0.876l0.06,0.063c0.308,-0.037 0.623,0.037 0.888,0.221c-0.201,-0.349 -0.156,-0.799 0.142,-1.095c0.354,-0.354 0.928,-0.354 1.282,0c0.353,0.352 0.353,0.927 0,1.281c-0.299,0.298 -0.75,0.344 -1.096,0.142c0.18,0.263 0.253,0.578 0.216,0.884l0.074,0.073c0.356,-0.024 0.721,0.1 0.994,0.374c0.271,0.27 0.395,0.636 0.374,0.991l0.114,0.117c0.359,-0.02 0.722,0.102 0.993,0.375c0.274,0.27 0.398,0.635 0.375,0.992l0.128,0.13c0.358,-0.023 0.722,0.101 0.994,0.374c0.274,0.273 0.395,0.636 0.374,0.991l0.083,0.085c0.357,-0.023 0.72,0.101 0.994,0.374c0.27,0.271 0.394,0.636 0.373,0.992l0.121,0.122c0.354,-0.023 0.719,0.099 0.991,0.371c0.273,0.274 0.397,0.636 0.374,0.994l0.107,0.106c0.357,-0.023 0.718,0.103 0.993,0.374c0.273,0.273 0.395,0.636 0.373,0.991l0.103,0.104c0.357,-0.021 0.721,0.101 0.994,0.374c0.272,0.275 0.395,0.635 0.372,0.993l0.111,0.11c0.356,-0.022 0.721,0.102 0.994,0.374c0.27,0.271 0.393,0.636 0.374,0.992l0.107,0.111c0.359,-0.023 0.722,0.1 0.994,0.372c0.273,0.273 0.397,0.637 0.374,0.993l0.128,0.13c0.358,-0.022 0.721,0.102 0.995,0.374c0.273,0.272 0.396,0.637 0.374,0.993l0.095,0.099c0.357,-0.023 0.721,0.101 0.994,0.372c0.272,0.27 0.396,0.637 0.374,0.993l0.107,0.106c0.354,-0.021 0.719,0.101 0.991,0.374c0.273,0.272 0.397,0.638 0.373,0.991l0.109,0.108c0.356,-0.023 0.717,0.101 0.991,0.374c0.272,0.273 0.396,0.638 0.374,0.992l0.114,0.115c0.356,-0.023 0.72,0.101 0.992,0.371c0.273,0.276 0.397,0.638 0.373,0.994l0.114,0.115c0.356,-0.025 0.72,0.098 0.993,0.374c0.271,0.271 0.395,0.636 0.374,0.993l0.106,0.106c0.357,-0.022 0.722,0.101 0.991,0.375c0.275,0.27 0.399,0.635 0.374,0.99l0.108,0.106c0.356,-0.021 0.721,0.101 0.993,0.377c0.273,0.269 0.397,0.633 0.374,0.991l0.116,0.117c0.357,-0.022 0.72,0.102 0.993,0.372c0.273,0.271 0.396,0.638 0.373,0.994l0.111,0.11c0.354,-0.024 0.72,0.1 0.992,0.372c0.272,0.272 0.396,0.638 0.373,0.994l0.034,0.032c0.145,-0.021 0.292,-0.016 0.437,0.013l0.007,-0.004c-0.041,-0.296 0.022,-0.602 0.188,-0.865c-0.339,0.167 -0.759,0.11 -1.038,-0.17c-0.353,-0.357 -0.353,-0.93 0,-1.283c0.354,-0.353 0.928,-0.353 1.28,0c0.285,0.282 0.34,0.711 0.167,1.049c0.259,-0.159 0.56,-0.218 0.851,-0.179l0.051,-0.051c-0.04,-0.296 0.021,-0.603 0.187,-0.863c-0.34,0.172 -0.765,0.118 -1.049,-0.167c-0.354,-0.354 -0.354,-0.928 0,-1.279c0.354,-0.355 0.927,-0.355 1.281,0c0.285,0.283 0.339,0.708 0.168,1.047c0.258,-0.163 0.565,-0.227 0.861,-0.186l0.043,-0.043c-0.039,-0.294 0.022,-0.601 0.187,-0.861c-0.341,0.174 -0.766,0.117 -1.051,-0.17c-0.353,-0.351 -0.353,-0.923 0,-1.278c0.355,-0.354 0.926,-0.354 1.282,0c0.282,0.283 0.339,0.709 0.167,1.048c0.261,-0.167 0.566,-0.229 0.863,-0.188l0.018,-0.018c-0.041,-0.301 0.024,-0.615 0.197,-0.877c-0.337,0.166 -0.756,0.106 -1.038,-0.172c-0.353,-0.355 -0.353,-0.929 0,-1.283c0.354,-0.353 0.929,-0.353 1.282,0c0.286,0.287 0.341,0.721 0.16,1.063c0.258,-0.159 0.558,-0.219 0.848,-0.179l0.068,-0.07c-0.039,-0.295 0.022,-0.598 0.184,-0.857c-0.339,0.174 -0.767,0.121 -1.052,-0.165c-0.354,-0.354 -0.354,-0.926 0,-1.281c0.355,-0.354 0.928,-0.354 1.281,0c0.283,0.285 0.338,0.706 0.168,1.046c0.262,-0.167 0.571,-0.23 0.868,-0.191l0.043,-0.043c-0.04,-0.291 0.021,-0.597 0.184,-0.856c-0.343,0.177 -0.769,0.119 -1.056,-0.165c-0.353,-0.351 -0.353,-0.927 0,-1.281c0.356,-0.351 0.929,-0.351 1.283,0c0.283,0.282 0.338,0.705 0.17,1.043c0.26,-0.167 0.569,-0.228 0.868,-0.189l0.03,-0.03c-0.039,-0.296 0.022,-0.603 0.187,-0.864c-0.339,0.17 -0.763,0.118 -1.047,-0.168c-0.355,-0.354 -0.355,-0.928 0,-1.281c0.352,-0.354 0.926,-0.354 1.281,0c0.285,0.284 0.341,0.709 0.167,1.053c0.26,-0.168 0.565,-0.23 0.859,-0.19l0.058,-0.055c-0.04,-0.292 0.02,-0.593 0.182,-0.852c-0.342,0.177 -0.772,0.12 -1.058,-0.163c-0.354,-0.355 -0.354,-0.929 0,-1.283c0.354,-0.353 0.929,-0.353 1.282,0c0.28,0.282 0.338,0.705 0.17,1.042c0.263,-0.168 0.572,-0.232 0.87,-0.192l0.03,-0.031c-0.04,-0.294 0.025,-0.601 0.188,-0.86c-0.339,0.174 -0.767,0.117 -1.05,-0.165c-0.355,-0.356 -0.355,-0.931 0,-1.284c0.353,-0.353 0.926,-0.353 1.281,0c0.283,0.284 0.339,0.71 0.168,1.05c0.26,-0.168 0.567,-0.228 0.862,-0.189l0.036,-0.036c-0.039,-0.297 0.022,-0.603 0.189,-0.864c-0.339,0.172 -0.763,0.115 -1.046,-0.167c-0.355,-0.357 -0.355,-0.927 0,-1.283c0.352,-0.352 0.926,-0.352 1.281,0c0.284,0.284 0.338,0.71 0.166,1.051c0.259,-0.163 0.564,-0.225 0.858,-0.186l0.046,-0.046c-0.039,-0.294 0.022,-0.599 0.187,-0.861c-0.339,0.171 -0.765,0.117 -1.05,-0.167c-0.353,-0.352 -0.353,-0.925 0,-1.281c0.352,-0.354 0.927,-0.354 1.283,0c0.283,0.286 0.337,0.709 0.168,1.049c0.259,-0.166 0.565,-0.228 0.859,-0.188l0.049,-0.048c-0.039,-0.292 0.022,-0.597 0.186,-0.857c-0.341,0.177 -0.768,0.121 -1.055,-0.163c-0.354,-0.353 -0.354,-0.927 0,-1.282c0.353,-0.354 0.927,-0.354 1.282,0c0.282,0.284 0.338,0.704 0.17,1.044c0.261,-0.165 0.568,-0.231 0.866,-0.191l0.03,-0.027c-0.04,-0.296 0.022,-0.604 0.19,-0.866c-0.34,0.17 -0.767,0.115 -1.049,-0.167c-0.352,-0.355 -0.352,-0.93 0,-1.283c0.356,-0.353 0.927,-0.353 1.281,0.002c0.284,0.283 0.338,0.712 0.166,1.049c0.259,-0.164 0.566,-0.225 0.862,-0.184l0.054,-0.057c-0.039,-0.295 0.021,-0.594 0.183,-0.854c-0.343,0.177 -0.771,0.122 -1.057,-0.163c-0.353,-0.355 -0.353,-0.929 0,-1.281c0.355,-0.355 0.927,-0.355 1.284,0c0.279,0.281 0.337,0.703 0.168,1.042c0.261,-0.169 0.573,-0.233 0.871,-0.192l0.023,-0.023c-0.041,-0.298 0.023,-0.606 0.191,-0.869c-0.34,0.174 -0.765,0.116 -1.047,-0.167c-0.354,-0.355 -0.354,-0.927 0,-1.282c0.355,-0.351 0.926,-0.351 1.282,0c0.284,0.286 0.34,0.714 0.166,1.053c0.259,-0.16 0.561,-0.222 0.855,-0.184l0.063,-0.064c-0.039,-0.291 0.02,-0.589 0.181,-0.849c-0.339,0.18 -0.772,0.124 -1.057,-0.163c-0.355,-0.355 -0.355,-0.928 0,-1.28c0.352,-0.356 0.928,-0.356 1.279,0c0.283,0.282 0.339,0.702 0.173,1.039c0.264,-0.17 0.573,-0.234 0.872,-0.195l0.014,-0.011c-0.04,-0.299 0.022,-0.611 0.193,-0.872c-0.341,0.167 -0.761,0.112 -1.043,-0.17c-0.352,-0.355 -0.352,-0.928 0,-1.281c0.354,-0.356 0.928,-0.353 1.281,0c0.288,0.285 0.341,0.714 0.165,1.056c0.257,-0.161 0.561,-0.22 0.852,-0.181l0.039,-0.042c-0.039,-0.298 0.025,-0.608 0.195,-0.87c-0.338,0.166 -0.759,0.111 -1.042,-0.172c-0.353,-0.353 -0.353,-0.927 0,-1.281c0.354,-0.353 0.928,-0.353 1.281,0c0.287,0.285 0.342,0.717 0.163,1.056c0.259,-0.158 0.559,-0.221 0.852,-0.18l0.048,-0.047c-0.039,-0.298 0.024,-0.605 0.191,-0.868c-0.338,0.17 -0.761,0.113 -1.045,-0.171c-0.353,-0.351 -0.353,-0.925 0,-1.279c0.352,-0.356 0.926,-0.356 1.282,0c0.286,0.285 0.34,0.712 0.164,1.054c0.259,-0.163 0.562,-0.225 0.855,-0.184l0.039,-0.041c-0.039,-0.299 0.026,-0.606 0.193,-0.868c-0.339,0.168 -0.761,0.112 -1.044,-0.17c-0.354,-0.353 -0.354,-0.928 0,-1.28c0.353,-0.357 0.928,-0.357 1.283,0c0.284,0.284 0.338,0.713 0.162,1.053c0.261,-0.161 0.564,-0.22 0.856,-0.181l0.05,-0.051c-0.042,-0.296 0.021,-0.603 0.188,-0.865m-31.03,28.149c-0.354,0.354 -0.927,0.354 -1.282,0c-0.353,-0.353 -0.353,-0.926 0,-1.28c0.355,-0.356 0.928,-0.356 1.282,0c0.353,0.354 0.353,0.927 0,1.28m-1.478,-1.475c-0.352,0.354 -0.927,0.354 -1.28,0c-0.355,-0.356 -0.355,-0.927 0,-1.28c0.353,-0.354 0.928,-0.354 1.28,0c0.355,0.353 0.355,0.924 0,1.28m-1.475,-1.475c-0.354,0.351 -0.928,0.351 -1.282,0c-0.353,-0.356 -0.353,-0.93 0,-1.283c0.354,-0.353 0.928,-0.353 1.282,0c0.353,0.353 0.353,0.927 0,1.283m-1.476,-1.478c-0.354,0.355 -0.928,0.355 -1.281,0c-0.355,-0.354 -0.355,-0.928 0,-1.284c0.353,-0.351 0.927,-0.351 1.281,0c0.353,0.356 0.353,0.93 0,1.284m-1.478,-1.479c-0.353,0.358 -0.926,0.358 -1.282,0c-0.352,-0.351 -0.352,-0.926 0,-1.281c0.356,-0.351 0.929,-0.351 1.282,0c0.356,0.355 0.356,0.93 0,1.281m-1.476,-1.473c-0.355,0.354 -0.927,0.354 -1.281,0c-0.353,-0.356 -0.353,-0.929 0,-1.281c0.354,-0.355 0.926,-0.355 1.281,0c0.354,0.352 0.354,0.925 0,1.281m-1.477,-1.478c-0.352,0.353 -0.926,0.353 -1.279,0c-0.354,-0.354 -0.354,-0.927 0,-1.281c0.353,-0.353 0.927,-0.353 1.279,0c0.355,0.354 0.355,0.927 0,1.281m-1.474,-1.477c-0.355,0.355 -0.928,0.355 -1.282,0c-0.354,-0.353 -0.354,-0.924 0,-1.28c0.354,-0.353 0.927,-0.353 1.282,0c0.352,0.356 0.352,0.927 0,1.28m-1.476,-1.476c-0.355,0.355 -0.93,0.355 -1.282,0c-0.356,-0.356 -0.356,-0.926 0,-1.28c0.352,-0.354 0.927,-0.354 1.282,0c0.353,0.354 0.353,0.924 0,1.28m-1.478,-1.475c-0.354,0.353 -0.927,0.353 -1.282,0c-0.352,-0.356 -0.352,-0.927 0,-1.283c0.355,-0.351 0.928,-0.351 1.282,0c0.353,0.356 0.353,0.927 0,1.283m-1.476,-1.478c-0.354,0.356 -0.928,0.356 -1.281,0c-0.354,-0.354 -0.354,-0.927 0,-1.281c0.353,-0.353 0.927,-0.353 1.281,0c0.353,0.354 0.353,0.927 0,1.281m-1.477,-1.476c-0.353,0.354 -0.926,0.354 -1.28,0c-0.355,-0.353 -0.355,-0.928 0,-1.28c0.354,-0.355 0.927,-0.355 1.28,0c0.355,0.352 0.355,0.927 0,1.28m-1.476,-1.475c-0.355,0.353 -0.929,0.353 -1.281,0c-0.355,-0.354 -0.355,-0.93 0,-1.281c0.352,-0.356 0.926,-0.356 1.281,0c0.353,0.351 0.353,0.927 0,1.281m-1.477,-1.476c-0.353,0.351 -0.927,0.351 -1.28,0c-0.353,-0.356 -0.353,-0.93 0,-1.283c0.353,-0.354 0.927,-0.354 1.28,0c0.354,0.353 0.354,0.927 0,1.283m-1.475,-1.479c-0.355,0.356 -0.927,0.356 -1.281,0c-0.354,-0.353 -0.354,-0.926 0,-1.28c0.354,-0.354 0.926,-0.354 1.281,0c0.352,0.354 0.352,0.927 0,1.28m-1.477,-1.475c-0.353,0.352 -0.927,0.352 -1.281,0c-0.355,-0.355 -0.355,-0.927 0,-1.281c0.354,-0.353 0.928,-0.353 1.281,0c0.354,0.354 0.354,0.926 0,1.281m-1.476,-1.476c-0.356,0.354 -0.927,0.354 -1.283,0c-0.352,-0.353 -0.352,-0.927 0,-1.282c0.356,-0.354 0.927,-0.354 1.283,0c0.353,0.355 0.353,0.929 0,1.282m-1.477,-1.478c-0.353,0.356 -0.928,0.356 -1.281,0c-0.354,-0.353 -0.354,-0.925 0,-1.28c0.353,-0.354 0.928,-0.354 1.281,0c0.355,0.355 0.355,0.927 0,1.28m26.513,23.553c-0.322,0.324 -0.839,0.324 -1.159,0c-0.32,-0.319 -0.32,-0.838 0,-1.157c0.32,-0.318 0.837,-0.318 1.159,0c0.319,0.319 0.319,0.838 0,1.157m-1.471,-1.467c-0.319,0.318 -0.839,0.318 -1.157,0c-0.321,-0.322 -0.321,-0.84 0,-1.161c0.318,-0.319 0.838,-0.319 1.157,0c0.32,0.321 0.32,0.839 0,1.161m-1.479,-1.48c-0.321,0.317 -0.838,0.317 -1.159,0c-0.318,-0.321 -0.318,-0.841 0,-1.159c0.321,-0.321 0.838,-0.321 1.159,0c0.32,0.318 0.32,0.838 0,1.159m-1.47,-1.473c-0.321,0.321 -0.839,0.321 -1.159,0c-0.32,-0.317 -0.32,-0.838 0,-1.158c0.32,-0.318 0.838,-0.318 1.159,0c0.318,0.32 0.318,0.841 0,1.158m-1.479,-1.476c-0.318,0.318 -0.838,0.318 -1.159,0c-0.318,-0.321 -0.318,-0.838 0,-1.159c0.321,-0.319 0.841,-0.319 1.159,0c0.32,0.321 0.32,0.838 0,1.159m-1.475,-1.477c-0.322,0.321 -0.84,0.321 -1.159,0c-0.32,-0.32 -0.32,-0.837 0,-1.158c0.319,-0.321 0.837,-0.321 1.159,0c0.319,0.321 0.319,0.838 0,1.158m-1.473,-1.472c-0.321,0.319 -0.841,0.319 -1.159,0c-0.32,-0.322 -0.32,-0.839 0,-1.16c0.318,-0.319 0.838,-0.319 1.159,0c0.317,0.321 0.317,0.838 0,1.16m-1.473,-1.472c-0.318,0.318 -0.836,0.318 -1.159,0c-0.318,-0.322 -0.318,-0.838 0,-1.156c0.323,-0.322 0.841,-0.322 1.159,0c0.32,0.318 0.32,0.834 0,1.156m-1.477,-1.478c-0.319,0.322 -0.837,0.322 -1.156,0c-0.323,-0.319 -0.323,-0.84 0,-1.16c0.319,-0.316 0.837,-0.316 1.156,0c0.32,0.32 0.32,0.841 0,1.16m-1.481,-1.48c-0.318,0.318 -0.837,0.318 -1.158,0c-0.318,-0.32 -0.318,-0.84 0,-1.157c0.321,-0.322 0.84,-0.322 1.158,0c0.32,0.317 0.32,0.837 0,1.157m-1.477,-1.479c-0.32,0.319 -0.838,0.319 -1.159,0c-0.32,-0.318 -0.32,-0.84 0,-1.159c0.321,-0.318 0.839,-0.318 1.159,0c0.318,0.319 0.318,0.841 0,1.159m-1.473,-1.47c-0.32,0.318 -0.839,0.318 -1.157,0c-0.321,-0.322 -0.321,-0.841 0,-1.159c0.318,-0.323 0.837,-0.323 1.157,0c0.321,0.318 0.321,0.837 0,1.159m-1.481,-1.482c-0.32,0.32 -0.838,0.32 -1.157,0c-0.321,-0.32 -0.321,-0.839 0,-1.16c0.319,-0.319 0.837,-0.319 1.157,0c0.319,0.321 0.319,0.84 0,1.16m-1.488,-1.491c-0.321,0.322 -0.838,0.322 -1.159,0c-0.318,-0.316 -0.318,-0.835 0.001,-1.157c0.32,-0.318 0.837,-0.318 1.158,0c0.32,0.322 0.32,0.841 0,1.157m-1.463,-1.462c-0.32,0.32 -0.838,0.32 -1.158,0c-0.32,-0.319 -0.32,-0.838 0,-1.156c0.32,-0.322 0.838,-0.322 1.158,0c0.32,0.318 0.32,0.837 0,1.156m-1.463,-1.465c-0.322,0.322 -0.838,0.322 -1.158,0c-0.32,-0.318 -0.32,-0.837 0,-1.156c0.32,-0.319 0.836,-0.319 1.158,0c0.32,0.319 0.32,0.838 0,1.156m-1.483,-1.479c-0.318,0.318 -0.838,0.318 -1.156,0c-0.321,-0.322 -0.321,-0.838 0,-1.159c0.318,-0.32 0.838,-0.32 1.156,0c0.32,0.321 0.32,0.837 0,1.159m-1.485,-1.487c-0.32,0.321 -0.839,0.321 -1.158,0c-0.321,-0.32 -0.321,-0.838 0,-1.158c0.319,-0.318 0.838,-0.318 1.158,0c0.319,0.32 0.319,0.838 0,1.158m-1.493,-1.492c-0.32,0.319 -0.838,0.319 -1.156,0c-0.323,-0.319 -0.323,-0.838 0,-1.159c0.318,-0.319 0.836,-0.319 1.156,0c0.319,0.321 0.319,0.84 0,1.159m28.074,25.056c-0.322,0.32 -0.841,0.32 -1.159,0c-0.32,-0.319 -0.32,-0.838 0,-1.157c0.318,-0.319 0.837,-0.319 1.159,0c0.318,0.319 0.318,0.838 0,1.157m-24.705,-24.666c0.287,-0.285 0.751,-0.285 1.035,0c0.286,0.287 0.286,0.75 0,1.035c-0.284,0.286 -0.748,0.286 -1.035,0c-0.284,-0.285 -0.284,-0.748 0,-1.035m-1.479,-0.443c-0.286,-0.287 -0.286,-0.748 0,-1.035c0.288,-0.286 0.75,-0.286 1.036,0c0.286,0.287 0.286,0.748 0,1.035c-0.286,0.287 -0.748,0.287 -1.036,0m2.959,1.923c0.286,-0.287 0.749,-0.287 1.035,0c0.286,0.285 0.286,0.748 0,1.035c-0.286,0.285 -0.749,0.285 -1.035,0c-0.286,-0.287 -0.286,-0.75 0,-1.035m1.465,1.463c0.286,-0.283 0.749,-0.283 1.034,0c0.288,0.288 0.288,0.751 0,1.039c-0.285,0.284 -0.748,0.284 -1.034,0c-0.285,-0.288 -0.285,-0.751 0,-1.039m15.763,15.742c-0.261,0.258 -0.68,0.258 -0.938,0c-0.258,-0.259 -0.258,-0.677 0,-0.937c0.258,-0.26 0.677,-0.26 0.938,0c0.258,0.26 0.258,0.678 0,0.937m1.468,0.532c0.259,0.26 0.259,0.677 0,0.936c-0.258,0.26 -0.677,0.26 -0.937,0c-0.258,-0.259 -0.258,-0.676 0,-0.936c0.26,-0.259 0.679,-0.259 0.937,0m-9.8,-7.914c-0.258,-0.259 -0.258,-0.677 0,-0.936c0.26,-0.26 0.679,-0.26 0.936,0c0.259,0.259 0.259,0.677 0,0.936c-0.257,0.259 -0.676,0.259 -0.936,0m6.852,5.906c-0.255,0.257 -0.676,0.257 -0.933,0c-0.259,-0.259 -0.259,-0.681 0,-0.937c0.257,-0.259 0.678,-0.259 0.933,0c0.26,0.256 0.26,0.678 0,0.937m-1.47,-1.474c-0.259,0.259 -0.678,0.259 -0.937,0c-0.26,-0.259 -0.26,-0.677 0,-0.936c0.259,-0.26 0.678,-0.26 0.937,0c0.257,0.259 0.257,0.677 0,0.936m-1.467,-1.467c-0.259,0.258 -0.678,0.258 -0.936,0c-0.259,-0.259 -0.259,-0.679 0,-0.936c0.258,-0.26 0.677,-0.26 0.936,0c0.258,0.257 0.258,0.677 0,0.936m-1.48,-1.48c-0.259,0.26 -0.676,0.26 -0.936,0c-0.257,-0.26 -0.257,-0.678 0,-0.936c0.26,-0.26 0.677,-0.26 0.936,0c0.258,0.258 0.258,0.676 0,0.936m-2.953,-2.954c-0.257,0.26 -0.677,0.26 -0.936,0c-0.258,-0.257 -0.258,-0.677 0,-0.936c0.259,-0.257 0.679,-0.257 0.936,0c0.258,0.259 0.258,0.679 0,0.936m-1.483,-1.48c-0.257,0.255 -0.678,0.255 -0.936,0c-0.258,-0.26 -0.258,-0.677 0,-0.937c0.258,-0.259 0.679,-0.259 0.936,0c0.26,0.26 0.26,0.677 0,0.937m-1.485,-1.487c-0.259,0.257 -0.678,0.257 -0.936,0c-0.261,-0.26 -0.261,-0.677 0,-0.937c0.258,-0.257 0.677,-0.257 0.936,0c0.258,0.26 0.258,0.677 0,0.937m-1.471,-1.471c-0.258,0.258 -0.678,0.258 -0.936,0c-0.258,-0.258 -0.258,-0.677 0,-0.937c0.258,-0.257 0.678,-0.257 0.936,0c0.259,0.26 0.259,0.679 0,0.937m15.254,15.279c0.286,-0.287 0.749,-0.287 1.034,0c0.287,0.284 0.287,0.748 0,1.035c-0.285,0.284 -0.748,0.284 -1.034,0c-0.286,-0.287 -0.286,-0.751 0,-1.035m1.474,1.473c0.285,-0.288 0.748,-0.288 1.036,0c0.284,0.287 0.284,0.748 0,1.035c-0.288,0.287 -0.751,0.287 -1.036,0c-0.287,-0.287 -0.287,-0.748 0,-1.035m-24.008,-24.046c-0.32,0.319 -0.838,0.319 -1.159,0c-0.319,-0.319 -0.319,-0.838 0,-1.159c0.321,-0.319 0.839,-0.319 1.159,0c0.319,0.321 0.319,0.84 0,1.159m28.021,25.111c-0.319,0.319 -0.839,0.319 -1.159,0c-0.319,-0.322 -0.319,-0.84 0,-1.162c0.32,-0.318 0.84,-0.318 1.159,0c0.318,0.322 0.318,0.84 0,1.162m-4.519,-4.498c-0.26,0.257 -0.679,0.257 -0.937,0c-0.26,-0.26 -0.26,-0.68 0,-0.939c0.258,-0.257 0.677,-0.257 0.937,0c0.257,0.259 0.257,0.679 0,0.939m1.465,0.53c0.257,0.257 0.257,0.677 0,0.936c-0.258,0.257 -0.676,0.257 -0.935,0c-0.258,-0.259 -0.258,-0.679 0,-0.936c0.259,-0.26 0.677,-0.26 0.935,0m-2.939,-2.007c-0.26,0.26 -0.678,0.26 -0.937,0c-0.258,-0.254 -0.258,-0.676 0,-0.936c0.259,-0.255 0.677,-0.255 0.937,0c0.258,0.26 0.258,0.682 0,0.936m-1.482,-1.482c-0.26,0.259 -0.677,0.259 -0.937,0c-0.259,-0.257 -0.26,-0.678 0,-0.938c0.26,-0.254 0.677,-0.254 0.937,0c0.258,0.26 0.258,0.681 0,0.938m-1.474,-1.471c-0.258,0.259 -0.677,0.259 -0.937,0c-0.257,-0.26 -0.257,-0.678 0,-0.937c0.26,-0.257 0.679,-0.257 0.937,0c0.26,0.259 0.26,0.677 0,0.937m-1.477,-1.476c-0.258,0.257 -0.677,0.257 -0.935,0c-0.26,-0.259 -0.26,-0.68 0,-0.937c0.258,-0.26 0.677,-0.26 0.935,0c0.26,0.257 0.26,0.678 0,0.937m-1.472,-1.474c-0.259,0.257 -0.678,0.257 -0.936,0c-0.261,-0.259 -0.261,-0.68 0,-0.936c0.258,-0.257 0.677,-0.257 0.936,0c0.257,0.256 0.257,0.677 0,0.936m-1.47,-1.469c-0.258,0.255 -0.679,0.255 -0.938,0c-0.256,-0.259 -0.256,-0.679 0,-0.936c0.259,-0.259 0.68,-0.259 0.938,0c0.258,0.257 0.258,0.677 0,0.936m-1.496,-1.498c-0.259,0.259 -0.677,0.259 -0.937,0c-0.258,-0.258 -0.258,-0.677 0,-0.937c0.26,-0.256 0.678,-0.256 0.937,0c0.258,0.26 0.258,0.679 0,0.937m-1.46,-1.46c-0.258,0.259 -0.679,0.259 -0.938,0c-0.256,-0.259 -0.256,-0.677 0,-0.936c0.259,-0.257 0.68,-0.257 0.938,0c0.258,0.259 0.258,0.677 0,0.936m-1.502,-1.504c-0.261,0.26 -0.68,0.26 -0.938,0c-0.258,-0.256 -0.258,-0.676 0,-0.935c0.258,-0.258 0.677,-0.258 0.938,0c0.258,0.259 0.258,0.679 0,0.935m-1.472,-1.468c-0.257,0.259 -0.677,0.259 -0.935,0c-0.258,-0.257 -0.258,-0.677 0,-0.936c0.258,-0.258 0.678,-0.258 0.935,0c0.26,0.259 0.26,0.679 0,0.936m-1.469,-1.469c-0.257,0.259 -0.676,0.259 -0.936,0c-0.259,-0.259 -0.259,-0.677 0,-0.937c0.26,-0.259 0.679,-0.259 0.936,0c0.258,0.26 0.258,0.678 0,0.937m-1.475,-1.479c-0.259,0.26 -0.677,0.26 -0.937,0c-0.259,-0.256 -0.259,-0.676 0,-0.933c0.26,-0.259 0.678,-0.259 0.937,0c0.257,0.257 0.257,0.677 0,0.933m-1.484,-1.479c-0.258,0.257 -0.677,0.257 -0.935,0c-0.26,-0.26 -0.26,-0.677 0,-0.938c0.258,-0.258 0.677,-0.258 0.935,0c0.257,0.261 0.257,0.678 0,0.938m-1.394,-1.435c-0.286,0.285 -0.749,0.285 -1.035,0c-0.285,-0.287 -0.285,-0.75 0,-1.035c0.286,-0.285 0.749,-0.285 1.035,0c0.287,0.285 0.287,0.748 0,1.035m22.59,22.589c0.286,-0.284 0.748,-0.284 1.036,0c0.284,0.287 0.284,0.751 0,1.038c-0.288,0.284 -0.75,0.284 -1.036,0c-0.285,-0.287 -0.285,-0.751 0,-1.038m-24.036,-24.016c-0.32,0.319 -0.838,0.319 -1.158,0c-0.32,-0.319 -0.32,-0.84 0,-1.16c0.32,-0.318 0.838,-0.318 1.158,0c0.321,0.32 0.321,0.841 0,1.16m28.087,25.042c-0.322,0.319 -0.838,0.319 -1.16,0c-0.318,-0.316 -0.318,-0.838 0,-1.157c0.322,-0.319 0.838,-0.319 1.16,0c0.32,0.319 0.32,0.841 0,1.157m-22.3,-22.298c-0.218,0.216 -0.571,0.216 -0.788,0c-0.218,-0.22 -0.218,-0.572 0,-0.789c0.217,-0.218 0.57,-0.218 0.788,0c0.217,0.217 0.217,0.569 0,0.789m17.717,16.927c0.216,0.218 0.216,0.57 0,0.788c-0.218,0.218 -0.572,0.218 -0.79,0c-0.218,-0.218 -0.218,-0.57 0,-0.788c0.218,-0.218 0.572,-0.218 0.79,0m-17.04,-16.224c0.216,-0.218 0.571,-0.218 0.789,0c0.216,0.216 0.216,0.572 0,0.787c-0.218,0.218 -0.573,0.218 -0.789,0c-0.218,-0.215 -0.218,-0.571 0,-0.787m5.219,4.427c0.219,0.217 0.219,0.572 0,0.787c-0.217,0.218 -0.569,0.218 -0.786,0c-0.219,-0.215 -0.219,-0.57 0,-0.787c0.217,-0.218 0.569,-0.218 0.786,0m-3.751,-2.958c0.218,-0.22 0.571,-0.22 0.788,0c0.218,0.217 0.218,0.569 0,0.787c-0.217,0.218 -0.57,0.218 -0.788,0c-0.217,-0.218 -0.217,-0.57 0,-0.787m1.47,1.469c0.217,-0.218 0.569,-0.218 0.788,0c0.218,0.215 0.218,0.569 0,0.786c-0.219,0.219 -0.571,0.219 -0.788,0c-0.219,-0.217 -0.219,-0.571 0,-0.786m2.964,2.963c0.218,-0.219 0.569,-0.219 0.788,0c0.217,0.218 0.217,0.571 0,0.789c-0.219,0.218 -0.57,0.218 -0.788,0c-0.219,-0.218 -0.219,-0.571 0,-0.789m1.479,1.482c0.22,-0.218 0.573,-0.218 0.79,0c0.217,0.217 0.217,0.569 0,0.787c-0.217,0.219 -0.57,0.219 -0.79,0c-0.216,-0.218 -0.216,-0.57 0,-0.787m1.47,1.466c0.217,-0.217 0.569,-0.217 0.786,0c0.219,0.219 0.219,0.572 0,0.79c-0.217,0.216 -0.569,0.216 -0.786,0c-0.219,-0.218 -0.219,-0.571 0,-0.79m1.482,1.481c0.215,-0.215 0.57,-0.215 0.788,0c0.216,0.221 0.216,0.572 0,0.79c-0.218,0.218 -0.573,0.218 -0.788,0c-0.218,-0.218 -0.218,-0.569 0,-0.79m1.473,1.478c0.219,-0.218 0.572,-0.218 0.79,0c0.219,0.216 0.219,0.569 0,0.788c-0.218,0.217 -0.571,0.217 -0.79,0c-0.218,-0.219 -0.218,-0.572 0,-0.788m1.482,1.481c0.216,-0.218 0.571,-0.218 0.789,0c0.217,0.215 0.217,0.569 0,0.787c-0.218,0.218 -0.573,0.218 -0.789,0c-0.218,-0.218 -0.218,-0.572 0,-0.787m1.465,1.464c0.218,-0.216 0.572,-0.216 0.791,0c0.216,0.22 0.216,0.571 0,0.789c-0.219,0.218 -0.573,0.218 -0.791,0c-0.216,-0.218 -0.216,-0.569 0,-0.789m2.877,2.879c0.258,-0.26 0.678,-0.26 0.937,0c0.259,0.259 0.259,0.676 0,0.936c-0.259,0.259 -0.679,0.259 -0.937,0c-0.257,-0.26 -0.257,-0.677 0,-0.936m-19.734,-19.74c-0.26,0.26 -0.68,0.26 -0.937,0c-0.258,-0.256 -0.258,-0.676 0,-0.933c0.257,-0.259 0.677,-0.259 0.937,0c0.258,0.257 0.258,0.677 0,0.933m-1.402,-1.424c-0.285,0.284 -0.748,0.284 -1.035,0c-0.285,-0.287 -0.285,-0.751 0,-1.036c0.287,-0.284 0.75,-0.284 1.035,0c0.287,0.285 0.287,0.749 0,1.036m22.591,22.59c0.285,-0.286 0.748,-0.286 1.035,0c0.285,0.285 0.285,0.749 0,1.036c-0.287,0.284 -0.75,0.284 -1.035,0c-0.287,-0.287 -0.287,-0.751 0,-1.036m-24.027,-24.027c-0.319,0.318 -0.839,0.318 -1.158,0c-0.319,-0.319 -0.319,-0.838 0,-1.159c0.319,-0.319 0.839,-0.319 1.158,0c0.319,0.321 0.319,0.84 0,1.159m28.063,25.068c-0.321,0.319 -0.839,0.319 -1.159,0c-0.318,-0.322 -0.318,-0.838 0,-1.16c0.32,-0.318 0.838,-0.318 1.159,0c0.319,0.322 0.319,0.838 0,1.16m-7.644,-7.641c-0.163,0.161 -0.43,0.161 -0.593,0c-0.163,-0.166 -0.163,-0.427 0,-0.593c0.163,-0.16 0.43,-0.16 0.593,0c0.162,0.166 0.162,0.427 0,0.593m1.492,0.902c0.163,0.165 0.163,0.429 0,0.592c-0.164,0.163 -0.427,0.163 -0.591,0c-0.163,-0.163 -0.163,-0.427 0,-0.592c0.164,-0.163 0.427,-0.163 0.591,0m-2.973,-2.386c-0.165,0.166 -0.428,0.166 -0.591,0c-0.163,-0.163 -0.163,-0.426 0,-0.589c0.163,-0.163 0.426,-0.163 0.591,0c0.163,0.163 0.163,0.426 0,0.589m-1.464,-1.461c-0.163,0.165 -0.428,0.165 -0.591,0c-0.163,-0.164 -0.163,-0.429 0,-0.592c0.163,-0.161 0.428,-0.161 0.591,0c0.163,0.163 0.163,0.428 0,0.592m-1.478,-1.478c-0.164,0.163 -0.429,0.163 -0.593,0c-0.163,-0.165 -0.163,-0.429 0,-0.592c0.164,-0.163 0.429,-0.163 0.593,0c0.163,0.163 0.163,0.427 0,0.592m-1.48,-1.48c-0.163,0.163 -0.428,0.163 -0.592,0c-0.163,-0.164 -0.163,-0.427 0,-0.59c0.164,-0.165 0.429,-0.165 0.592,0c0.163,0.163 0.163,0.426 0,0.59m-1.487,-1.485c-0.164,0.163 -0.427,0.163 -0.59,0c-0.163,-0.165 -0.163,-0.429 0,-0.593c0.163,-0.162 0.426,-0.162 0.59,0c0.164,0.164 0.164,0.428 0,0.593m-1.472,-1.474c-0.163,0.163 -0.429,0.163 -0.592,0c-0.162,-0.163 -0.162,-0.429 0,-0.592c0.163,-0.163 0.428,-0.163 0.592,0c0.164,0.163 0.164,0.429 0,0.592m-1.48,-1.477c-0.164,0.162 -0.426,0.162 -0.59,0c-0.164,-0.163 -0.164,-0.43 0,-0.593c0.164,-0.163 0.426,-0.163 0.59,0c0.163,0.163 0.163,0.43 0,0.593m-1.472,-1.475c-0.163,0.164 -0.428,0.164 -0.591,0c-0.163,-0.162 -0.163,-0.428 0,-0.591c0.163,-0.163 0.428,-0.163 0.591,0c0.163,0.163 0.163,0.429 0,0.591m-1.472,-1.473c-0.164,0.163 -0.43,0.163 -0.592,0c-0.163,-0.163 -0.163,-0.429 0,-0.589c0.162,-0.165 0.428,-0.165 0.592,0c0.163,0.16 0.163,0.426 0,0.589m-1.365,-1.372c-0.218,0.217 -0.571,0.217 -0.788,0c-0.218,-0.218 -0.218,-0.573 0,-0.79c0.217,-0.215 0.57,-0.215 0.788,0c0.217,0.217 0.217,0.572 0,0.79m16.927,16.925c0.218,-0.215 0.572,-0.215 0.79,0c0.216,0.219 0.216,0.573 0,0.791c-0.218,0.218 -0.572,0.218 -0.79,0c-0.216,-0.218 -0.216,-0.572 0,-0.791m1.397,1.388c0.259,-0.257 0.678,-0.257 0.935,0c0.259,0.259 0.259,0.677 0,0.936c-0.257,0.26 -0.676,0.26 -0.935,0c-0.258,-0.259 -0.258,-0.677 0,-0.936m-19.736,-19.736c-0.258,0.257 -0.677,0.257 -0.937,0c-0.257,-0.259 -0.257,-0.677 0,-0.936c0.26,-0.258 0.679,-0.258 0.937,0c0.258,0.259 0.258,0.677 0,0.936m-1.414,-1.414c-0.287,0.285 -0.748,0.285 -1.036,0c-0.285,-0.287 -0.285,-0.75 0,-1.035c0.288,-0.287 0.749,-0.287 1.036,0c0.287,0.285 0.287,0.748 0,1.035m22.589,22.591c0.287,-0.287 0.748,-0.287 1.037,0c0.284,0.285 0.284,0.749 0,1.033c-0.289,0.287 -0.75,0.287 -1.037,0c-0.285,-0.284 -0.285,-0.748 0,-1.033m-24.034,-24.018c-0.318,0.315 -0.837,0.315 -1.158,0c-0.318,-0.321 -0.318,-0.84 0,-1.159c0.321,-0.319 0.84,-0.319 1.158,0c0.321,0.319 0.321,0.838 0,1.159m1.819,-4.136c0.32,-0.321 0.838,-0.321 1.159,0c0.319,0.319 0.319,0.838 0,1.157c-0.321,0.321 -0.839,0.321 -1.159,0c-0.32,-0.319 -0.32,-0.838 0,-1.157m14.116,14.133c-0.121,0.122 -0.319,0.122 -0.44,0c-0.122,-0.122 -0.122,-0.319 0,-0.438c0.121,-0.122 0.319,-0.122 0.44,0c0.121,0.119 0.121,0.316 0,0.438m1.437,0.998c0.121,0.122 0.121,0.317 0,0.441c-0.122,0.12 -0.318,0.12 -0.44,0c-0.121,-0.124 -0.121,-0.319 0,-0.441c0.122,-0.121 0.318,-0.121 0.44,0m-2.953,-2.514c-0.121,0.123 -0.319,0.123 -0.439,0c-0.122,-0.121 -0.122,-0.318 0,-0.437c0.12,-0.124 0.318,-0.124 0.439,0c0.121,0.119 0.121,0.316 0,0.437m-1.464,-1.461c-0.122,0.12 -0.317,0.12 -0.438,0c-0.122,-0.122 -0.122,-0.319 0,-0.44c0.121,-0.122 0.316,-0.122 0.438,0c0.122,0.121 0.122,0.318 0,0.44m-1.477,-1.48c-0.121,0.122 -0.319,0.122 -0.441,0c-0.121,-0.122 -0.121,-0.317 0,-0.438c0.122,-0.122 0.32,-0.122 0.441,0c0.121,0.121 0.121,0.316 0,0.438m-2.864,-2.882c-0.164,0.162 -0.428,0.162 -0.591,0c-0.164,-0.164 -0.164,-0.43 0,-0.594c0.163,-0.163 0.427,-0.163 0.591,0c0.163,0.164 0.163,0.43 0,0.594m-1.361,-1.376c-0.218,0.217 -0.571,0.217 -0.789,0c-0.219,-0.218 -0.219,-0.571 0,-0.789c0.218,-0.219 0.571,-0.219 0.789,0c0.219,0.218 0.219,0.571 0,0.789m-1.425,-1.397c-0.259,0.259 -0.678,0.259 -0.936,0c-0.259,-0.26 -0.259,-0.677 0,-0.937c0.258,-0.259 0.677,-0.259 0.936,0c0.259,0.26 0.259,0.677 0,0.937m-1.414,-1.428c-0.286,0.285 -0.749,0.285 -1.034,0c-0.287,-0.284 -0.287,-0.748 0,-1.035c0.285,-0.284 0.748,-0.284 1.034,0c0.285,0.287 0.285,0.751 0,1.035m-4.098,-1.09c0.319,-0.319 0.838,-0.319 1.157,0c0.321,0.322 0.321,0.84 0,1.158c-0.319,0.32 -0.838,0.32 -1.157,0c-0.322,-0.318 -0.322,-0.836 0,-1.158m24.693,24.67c-0.26,0.257 -0.681,0.257 -0.937,0c-0.259,-0.257 -0.259,-0.68 0,-0.939c0.256,-0.254 0.677,-0.254 0.937,0c0.257,0.259 0.257,0.682 0,0.939m1.517,0.523c0.286,0.287 0.286,0.751 0,1.036c-0.286,0.285 -0.749,0.285 -1.034,0c-0.287,-0.285 -0.287,-0.749 0,-1.036c0.285,-0.287 0.748,-0.287 1.034,0m-3.079,-2.04c-0.217,0.218 -0.572,0.218 -0.79,0c-0.214,-0.218 -0.214,-0.571 0,-0.788c0.218,-0.217 0.573,-0.217 0.79,0c0.218,0.217 0.218,0.57 0,0.788m-1.555,-1.563c-0.164,0.163 -0.428,0.163 -0.592,0c-0.163,-0.163 -0.163,-0.429 0,-0.592c0.164,-0.163 0.428,-0.163 0.592,0c0.163,0.163 0.163,0.429 0,0.592m-6.023,-6.02c-0.122,0.124 -0.32,0.124 -0.442,0c-0.123,-0.123 -0.123,-0.319 0,-0.443c0.122,-0.121 0.32,-0.121 0.442,0c0.121,0.124 0.121,0.32 0,0.443m-1.473,-1.473c-0.121,0.121 -0.322,0.121 -0.444,0c-0.123,-0.122 -0.123,-0.319 0,-0.443c0.122,-0.123 0.323,-0.123 0.444,0c0.123,0.124 0.123,0.321 0,0.443m-1.474,-1.471c-0.121,0.121 -0.319,0.121 -0.442,0c-0.122,-0.124 -0.122,-0.322 0,-0.446c0.123,-0.121 0.321,-0.121 0.442,0c0.124,0.124 0.124,0.322 0,0.446m-1.474,-1.474c-0.122,0.121 -0.318,0.121 -0.44,0c-0.123,-0.124 -0.123,-0.321 0,-0.445c0.122,-0.122 0.318,-0.122 0.44,0c0.124,0.124 0.124,0.321 0,0.445m-1.471,-1.473c-0.123,0.121 -0.321,0.121 -0.444,0c-0.123,-0.122 -0.123,-0.321 0,-0.443c0.123,-0.122 0.321,-0.122 0.444,0c0.123,0.122 0.123,0.321 0,0.443m-2.866,-2.869c-0.164,0.163 -0.427,0.163 -0.591,0c-0.163,-0.166 -0.163,-0.429 0,-0.592c0.164,-0.163 0.427,-0.163 0.591,0c0.163,0.163 0.163,0.426 0,0.592m-1.38,-1.373c-0.217,0.218 -0.571,0.218 -0.789,0c-0.217,-0.218 -0.217,-0.572 0,-0.789c0.218,-0.218 0.572,-0.218 0.789,0c0.217,0.217 0.217,0.571 0,0.789m-1.396,-1.439c-0.259,0.257 -0.679,0.257 -0.936,0c-0.258,-0.259 -0.258,-0.679 0,-0.936c0.257,-0.259 0.677,-0.259 0.936,0c0.259,0.257 0.259,0.677 0,0.936m-1.433,-1.395c-0.287,0.287 -0.75,0.287 -1.036,0c-0.287,-0.285 -0.287,-0.748 0,-1.035c0.286,-0.286 0.749,-0.286 1.036,0c0.285,0.287 0.285,0.75 0,1.035m25.135,25.12c-0.319,0.321 -0.839,0.321 -1.159,0c-0.318,-0.317 -0.318,-0.837 0,-1.157c0.32,-0.321 0.84,-0.321 1.159,0c0.32,0.32 0.32,0.84 0,1.157m1.504,-1.503c-0.319,0.319 -0.838,0.319 -1.156,0c-0.32,-0.319 -0.32,-0.841 0,-1.159c0.318,-0.321 0.837,-0.321 1.156,0c0.322,0.318 0.322,0.84 0,1.159m-5.36,-5.376c0.217,-0.218 0.57,-0.218 0.789,0c0.218,0.216 0.218,0.569 0,0.787c-0.219,0.218 -0.572,0.218 -0.789,0c-0.217,-0.218 -0.217,-0.571 0,-0.787m-1.378,-0.773c-0.164,-0.164 -0.164,-0.43 0,-0.592c0.163,-0.163 0.427,-0.163 0.59,0c0.164,0.162 0.164,0.428 0,0.592c-0.163,0.163 -0.427,0.163 -0.59,0m2.761,2.182c0.258,-0.257 0.677,-0.257 0.935,0c0.261,0.26 0.261,0.68 0,0.937c-0.258,0.258 -0.677,0.258 -0.935,0c-0.258,-0.257 -0.258,-0.677 0,-0.937m1.439,1.428c0.286,-0.287 0.75,-0.287 1.034,0c0.287,0.287 0.287,0.75 0,1.035c-0.284,0.285 -0.748,0.285 -1.034,0c-0.284,-0.285 -0.284,-0.748 0,-1.035m-5.391,-5.373c-0.827,0.829 -2.166,0.829 -2.994,0c-0.826,-0.826 -0.826,-2.164 0,-2.993c0.828,-0.826 2.167,-0.826 2.994,0c0.827,0.829 0.827,2.167 0,2.993m-13.67,-16.657c0.216,-0.219 0.57,-0.219 0.788,0c0.217,0.216 0.217,0.568 0,0.789c-0.218,0.215 -0.572,0.215 -0.788,0c-0.217,-0.221 -0.217,-0.573 0,-0.789m-1.57,-0.627c-0.259,-0.257 -0.259,-0.677 0,-0.935c0.258,-0.258 0.678,-0.258 0.936,0c0.258,0.258 0.258,0.678 0,0.935c-0.258,0.258 -0.678,0.258 -0.936,0m3.123,2.203c0.163,-0.165 0.428,-0.165 0.592,0c0.162,0.163 0.162,0.427 0,0.59c-0.164,0.163 -0.429,0.163 -0.592,0c-0.164,-0.163 -0.164,-0.427 0,-0.59m6.411,6.401c-0.121,0.122 -0.318,0.122 -0.439,0c-0.12,-0.121 -0.12,-0.319 0,-0.438c0.121,-0.122 0.318,-0.122 0.439,0c0.122,0.119 0.122,0.317 0,0.438m1.516,1.077c0.12,0.118 0.12,0.316 0,0.44c-0.12,0.12 -0.318,0.12 -0.439,0c-0.122,-0.124 -0.122,-0.322 0,-0.44c0.121,-0.122 0.319,-0.122 0.439,0m-2.979,-2.539c-0.121,0.12 -0.319,0.12 -0.44,0c-0.121,-0.122 -0.121,-0.319 0,-0.44c0.121,-0.122 0.319,-0.122 0.44,0c0.122,0.121 0.122,0.318 0,0.44m-1.479,-1.48c-0.12,0.121 -0.317,0.121 -0.438,0c-0.122,-0.122 -0.122,-0.318 0,-0.439c0.121,-0.121 0.318,-0.121 0.438,0c0.123,0.121 0.123,0.317 0,0.439m5.455,5.455c0.121,-0.121 0.319,-0.121 0.441,0c0.121,0.122 0.121,0.317 0,0.439c-0.122,0.124 -0.32,0.124 -0.441,0c-0.121,-0.122 -0.121,-0.317 0,-0.439m6.446,5.864c0.165,0.165 0.165,0.429 0,0.592c-0.162,0.163 -0.426,0.163 -0.59,0c-0.163,-0.163 -0.163,-0.427 0,-0.592c0.164,-0.163 0.428,-0.163 0.59,0m0.792,1.36c0.218,-0.217 0.571,-0.217 0.788,0c0.217,0.219 0.217,0.573 0,0.788c-0.217,0.219 -0.57,0.219 -0.788,0c-0.217,-0.215 -0.217,-0.569 0,-0.788m1.387,1.396c0.258,-0.259 0.678,-0.259 0.936,0c0.258,0.258 0.258,0.677 0,0.935c-0.258,0.259 -0.678,0.259 -0.936,0c-0.26,-0.258 -0.26,-0.677 0,-0.935m1.445,1.433c0.288,-0.286 0.75,-0.286 1.037,0c0.285,0.287 0.285,0.75 0,1.035c-0.287,0.287 -0.749,0.287 -1.037,0c-0.284,-0.285 -0.284,-0.748 0,-1.035m-22.589,-22.588c-0.286,0.284 -0.748,0.284 -1.035,0c-0.286,-0.287 -0.286,-0.751 0,-1.036c0.287,-0.287 0.749,-0.287 1.035,0c0.287,0.285 0.287,0.749 0,1.036m25.128,25.129c-0.322,0.318 -0.838,0.318 -1.159,0c-0.319,-0.322 -0.319,-0.838 0,-1.161c0.321,-0.318 0.837,-0.318 1.159,0c0.32,0.323 0.32,0.839 0,1.161m-26.565,-26.566c-0.32,0.319 -0.84,0.319 -1.158,0c-0.32,-0.319 -0.32,-0.838 0,-1.157c0.318,-0.321 0.838,-0.321 1.158,0c0.318,0.319 0.318,0.838 0,1.157m28.048,25.081c-0.318,0.318 -0.836,0.318 -1.156,0c-0.321,-0.32 -0.321,-0.838 0,-1.159c0.32,-0.32 0.838,-0.32 1.156,0c0.321,0.317 0.321,0.839 0,1.159m-17.021,-17.012c0.122,-0.122 0.319,-0.122 0.44,0c0.121,0.122 0.121,0.317 0,0.439c-0.121,0.124 -0.318,0.124 -0.44,0c-0.122,-0.122 -0.122,-0.317 0,-0.439m-1.477,-1.04c-0.122,-0.122 -0.122,-0.316 0,-0.438c0.122,-0.121 0.317,-0.121 0.438,0c0.121,0.122 0.121,0.316 0,0.438c-0.121,0.122 -0.316,0.122 -0.438,0m2.94,2.501c0.12,-0.118 0.319,-0.118 0.441,0c0.121,0.124 0.121,0.32 0,0.442c-0.122,0.122 -0.321,0.122 -0.441,0c-0.121,-0.122 -0.121,-0.318 0,-0.442m1.517,1.518c0.122,-0.121 0.318,-0.121 0.438,0c0.122,0.122 0.122,0.319 0,0.439c-0.12,0.121 -0.316,0.121 -0.438,0c-0.122,-0.12 -0.122,-0.317 0,-0.439m1.436,1.437c0.122,-0.122 0.32,-0.122 0.442,0c0.12,0.122 0.12,0.319 0,0.438c-0.122,0.122 -0.32,0.122 -0.442,0.003c-0.122,-0.122 -0.122,-0.319 0,-0.441m1.517,1.515c0.119,-0.122 0.316,-0.122 0.439,0c0.122,0.121 0.122,0.319 0,0.44c-0.123,0.122 -0.32,0.122 -0.439,0c-0.123,-0.121 -0.123,-0.319 0,-0.44m1.436,1.439c0.123,-0.122 0.318,-0.122 0.44,0c0.12,0.119 0.12,0.316 0,0.438c-0.122,0.122 -0.317,0.122 -0.44,0c-0.12,-0.122 -0.12,-0.319 0,-0.438m1.486,1.492c0.124,-0.122 0.321,-0.122 0.445,0c0.121,0.121 0.121,0.321 0,0.443c-0.124,0.124 -0.321,0.124 -0.445,0c-0.121,-0.122 -0.121,-0.322 0,-0.443m1.42,1.416c0.163,-0.163 0.428,-0.163 0.591,0c0.163,0.165 0.163,0.429 0,0.592c-0.163,0.163 -0.428,0.163 -0.591,0c-0.163,-0.163 -0.163,-0.427 0,-0.592m-14.19,-14.188c-0.164,0.161 -0.426,0.161 -0.589,0c-0.164,-0.163 -0.164,-0.427 0,-0.593c0.163,-0.163 0.425,-0.163 0.589,0c0.164,0.166 0.164,0.43 0,0.593m-1.363,-1.373c-0.217,0.218 -0.57,0.218 -0.788,0c-0.218,-0.218 -0.218,-0.569 0,-0.787c0.218,-0.219 0.571,-0.219 0.788,0c0.218,0.218 0.218,0.569 0,0.787m16.929,16.929c0.218,-0.216 0.571,-0.216 0.787,0c0.218,0.218 0.218,0.571 0,0.789c-0.216,0.218 -0.569,0.218 -0.787,0c-0.218,-0.218 -0.218,-0.571 0,-0.789m1.398,1.381c0.259,-0.259 0.679,-0.259 0.937,0c0.258,0.26 0.258,0.677 0,0.936c-0.258,0.26 -0.678,0.26 -0.937,0c-0.259,-0.259 -0.259,-0.676 0,-0.936m-19.736,-19.735c-0.257,0.257 -0.678,0.257 -0.937,0c-0.257,-0.26 -0.257,-0.68 0,-0.937c0.259,-0.259 0.68,-0.259 0.937,0c0.259,0.257 0.259,0.677 0,0.937m-1.419,-1.407c-0.286,0.284 -0.75,0.284 -1.034,0c-0.287,-0.287 -0.287,-0.751 0,-1.035c0.284,-0.287 0.748,-0.287 1.034,0c0.285,0.284 0.285,0.748 0,1.035m22.589,22.588c0.287,-0.285 0.751,-0.285 1.035,0c0.286,0.287 0.286,0.75 0,1.035c-0.284,0.286 -0.748,0.286 -1.035,0c-0.284,-0.285 -0.284,-0.748 0,-1.035m-24.026,-24.027c-0.319,0.319 -0.838,0.319 -1.158,0c-0.319,-0.32 -0.319,-0.838 0,-1.159c0.32,-0.319 0.839,-0.319 1.158,0c0.32,0.321 0.32,0.839 0,1.159m28.038,25.092c-0.321,0.321 -0.839,0.321 -1.158,0c-0.32,-0.319 -0.32,-0.838 0,-1.16c0.319,-0.316 0.837,-0.316 1.158,0c0.319,0.322 0.319,0.841 0,1.16m-17.007,-17.025c0.122,-0.122 0.319,-0.122 0.439,0c0.122,0.122 0.122,0.317 0,0.438c-0.12,0.122 -0.317,0.122 -0.439,0c-0.121,-0.121 -0.121,-0.316 0,-0.438m-1.479,-1.04c-0.121,-0.121 -0.121,-0.316 0,-0.438c0.122,-0.122 0.319,-0.122 0.439,0c0.123,0.122 0.123,0.317 0,0.438c-0.12,0.122 -0.317,0.122 -0.439,0m2.942,2.502c0.122,-0.122 0.318,-0.122 0.44,0c0.122,0.122 0.122,0.318 0,0.441c-0.122,0.121 -0.318,0.121 -0.44,0c-0.12,-0.123 -0.12,-0.319 0,-0.441m1.515,1.517c0.122,-0.122 0.319,-0.122 0.441,0c0.12,0.122 0.12,0.319 0,0.438c-0.122,0.122 -0.319,0.122 -0.441,0c-0.121,-0.119 -0.121,-0.316 0,-0.438m1.438,1.437c0.121,-0.122 0.319,-0.122 0.438,0c0.123,0.119 0.123,0.319 0,0.441c-0.119,0.119 -0.317,0.119 -0.438,0c-0.122,-0.122 -0.122,-0.322 0,-0.441m1.515,1.515c0.122,-0.122 0.319,-0.122 0.44,0c0.122,0.121 0.122,0.318 0,0.44c-0.121,0.121 -0.318,0.121 -0.44,0c-0.122,-0.122 -0.122,-0.319 0,-0.44m1.437,1.438c0.122,-0.121 0.317,-0.121 0.439,0c0.122,0.119 0.122,0.317 0,0.439c-0.122,0.122 -0.317,0.122 -0.439,0c-0.121,-0.122 -0.121,-0.32 0,-0.439m1.48,1.498c0.123,-0.12 0.322,-0.12 0.445,0c0.122,0.122 0.122,0.323 0,0.444c-0.123,0.124 -0.322,0.124 -0.445,0c-0.123,-0.121 -0.123,-0.322 0,-0.444m1.424,1.413c0.163,-0.164 0.43,-0.164 0.593,0c0.163,0.163 0.163,0.427 0,0.59c-0.163,0.165 -0.43,0.165 -0.593,0c-0.162,-0.163 -0.162,-0.427 0,-0.59m-14.187,-14.188c-0.163,0.163 -0.428,0.163 -0.592,0c-0.163,-0.165 -0.163,-0.43 0,-0.593c0.164,-0.163 0.429,-0.163 0.592,0c0.163,0.163 0.163,0.428 0,0.593m-1.362,-1.378c-0.217,0.219 -0.568,0.219 -0.788,0c-0.216,-0.218 -0.216,-0.569 0,-0.787c0.22,-0.218 0.571,-0.218 0.788,0c0.218,0.218 0.218,0.569 0,0.787m16.929,16.929c0.218,-0.218 0.57,-0.218 0.789,0c0.216,0.218 0.216,0.572 0,0.79c-0.219,0.215 -0.571,0.215 -0.789,0c-0.219,-0.218 -0.219,-0.572 0,-0.79m1.389,1.39c0.259,-0.256 0.678,-0.256 0.935,0c0.261,0.26 0.261,0.68 0,0.937c-0.257,0.26 -0.676,0.26 -0.935,0c-0.257,-0.257 -0.257,-0.677 0,-0.937m-19.737,-19.735c-0.257,0.258 -0.676,0.258 -0.935,0c-0.258,-0.257 -0.258,-0.677 0,-0.936c0.259,-0.257 0.678,-0.257 0.935,0c0.26,0.259 0.26,0.679 0,0.936m-1.411,-1.416c-0.284,0.285 -0.748,0.285 -1.033,0c-0.286,-0.287 -0.286,-0.75 0,-1.035c0.285,-0.287 0.749,-0.287 1.033,0c0.287,0.285 0.287,0.748 0,1.035m22.591,22.589c0.285,-0.285 0.748,-0.285 1.035,0c0.286,0.284 0.286,0.748 0,1.037c-0.287,0.285 -0.75,0.285 -1.035,0c-0.285,-0.289 -0.285,-0.753 0,-1.037m-24.043,-24.01c-0.319,0.319 -0.839,0.319 -1.157,0c-0.32,-0.318 -0.32,-0.837 0,-1.159c0.318,-0.318 0.838,-0.318 1.157,0c0.32,0.322 0.32,0.841 0,1.159m28.084,25.047c-0.32,0.319 -0.84,0.319 -1.159,0c-0.32,-0.319 -0.32,-0.838 0,-1.157c0.319,-0.321 0.839,-0.321 1.159,0c0.318,0.319 0.318,0.838 0,1.157m-17.038,-16.995c0.122,-0.122 0.318,-0.122 0.44,0c0.122,0.122 0.122,0.316 0,0.437c-0.122,0.122 -0.318,0.122 -0.44,0c-0.121,-0.121 -0.121,-0.315 0,-0.437m-1.478,-1.04c-0.122,-0.122 -0.122,-0.319 0,-0.438c0.121,-0.122 0.318,-0.122 0.44,0c0.12,0.119 0.12,0.316 0,0.438c-0.122,0.122 -0.319,0.122 -0.44,0m2.941,2.502c0.122,-0.122 0.318,-0.122 0.439,0c0.122,0.122 0.122,0.319 0,0.441c-0.121,0.121 -0.317,0.121 -0.439,0c-0.121,-0.122 -0.121,-0.319 0,-0.441m1.516,1.516c0.122,-0.121 0.318,-0.121 0.441,0c0.121,0.122 0.121,0.317 0,0.439c-0.123,0.122 -0.319,0.122 -0.441,0c-0.122,-0.122 -0.122,-0.317 0,-0.439m1.437,1.438c0.122,-0.122 0.318,-0.122 0.44,0c0.121,0.121 0.121,0.319 0.001,0.437c-0.123,0.122 -0.319,0.122 -0.441,0c-0.122,-0.118 -0.122,-0.316 0,-0.437m1.515,1.515c0.123,-0.123 0.319,-0.123 0.441,0c0.12,0.121 0.12,0.318 0,0.44c-0.122,0.122 -0.318,0.122 -0.441,0c-0.121,-0.122 -0.121,-0.319 0,-0.44m1.437,1.436c0.121,-0.119 0.32,-0.119 0.44,0c0.122,0.122 0.122,0.318 0,0.441c-0.12,0.122 -0.319,0.122 -0.44,0c-0.12,-0.123 -0.12,-0.319 0,-0.441m1.475,1.508c0.122,-0.124 0.322,-0.124 0.442,0c0.122,0.121 0.122,0.319 0,0.443c-0.12,0.122 -0.32,0.122 -0.442,0c-0.122,-0.124 -0.122,-0.322 0,-0.443m1.449,1.386c0.162,-0.163 0.429,-0.163 0.592,0c0.163,0.163 0.163,0.426 0,0.589c-0.163,0.166 -0.43,0.166 -0.592,0c-0.163,-0.163 -0.163,-0.426 0,-0.589m-14.189,-14.19c-0.163,0.163 -0.427,0.163 -0.591,0c-0.164,-0.163 -0.164,-0.428 0,-0.59c0.164,-0.163 0.428,-0.163 0.591,0c0.163,0.162 0.163,0.427 0,0.59m-1.356,-1.377c-0.219,0.216 -0.571,0.216 -0.79,0c-0.218,-0.219 -0.218,-0.572 0,-0.788c0.219,-0.221 0.571,-0.221 0.79,0c0.217,0.216 0.217,0.569 0,0.788m16.926,16.926c0.218,-0.216 0.571,-0.216 0.79,0c0.218,0.218 0.218,0.571 0,0.789c-0.219,0.219 -0.572,0.219 -0.79,0c-0.217,-0.218 -0.217,-0.571 0,-0.789m1.394,1.391c0.257,-0.259 0.677,-0.259 0.936,0c0.257,0.256 0.257,0.676 0,0.934c-0.259,0.259 -0.679,0.259 -0.936,0c-0.258,-0.258 -0.258,-0.678 0,-0.934m-19.736,-19.738c-0.26,0.259 -0.678,0.259 -0.936,0c-0.259,-0.257 -0.259,-0.677 0,-0.937c0.258,-0.259 0.676,-0.259 0.936,0c0.258,0.26 0.258,0.68 0,0.937m-1.434,-1.393c-0.286,0.284 -0.749,0.284 -1.037,0c-0.284,-0.287 -0.284,-0.751 0,-1.035c0.288,-0.287 0.751,-0.287 1.037,0c0.286,0.284 0.286,0.748 0,1.035m22.589,22.59c0.287,-0.287 0.75,-0.287 1.036,0c0.285,0.285 0.285,0.748 0,1.033c-0.286,0.287 -0.749,0.287 -1.036,0c-0.286,-0.285 -0.286,-0.748 0,-1.033m-24.013,-24.041c-0.321,0.322 -0.839,0.322 -1.159,0c-0.32,-0.319 -0.32,-0.838 0,-1.159c0.32,-0.318 0.838,-0.318 1.159,0c0.319,0.321 0.319,0.84 0,1.159m28.039,25.089c-0.319,0.322 -0.838,0.322 -1.157,0c-0.321,-0.318 -0.321,-0.837 0,-1.158c0.319,-0.317 0.838,-0.317 1.157,0c0.32,0.321 0.32,0.84 0,1.158m-17.026,-17.005c0.122,-0.122 0.319,-0.122 0.442,0c0.121,0.121 0.121,0.316 0,0.438c-0.123,0.122 -0.32,0.122 -0.442,0c-0.121,-0.122 -0.121,-0.317 0,-0.438m-1.476,-1.04c-0.122,-0.123 -0.122,-0.319 0,-0.438c0.121,-0.122 0.317,-0.122 0.438,0c0.122,0.119 0.122,0.315 0,0.438c-0.121,0.122 -0.317,0.122 -0.438,0m2.941,2.503c0.12,-0.124 0.318,-0.124 0.439,0c0.122,0.12 0.122,0.318 0,0.439c-0.121,0.122 -0.319,0.122 -0.439,0c-0.122,-0.121 -0.122,-0.319 0,-0.439m1.516,1.516c0.122,-0.122 0.317,-0.122 0.437,0c0.123,0.121 0.123,0.316 0,0.438c-0.12,0.122 -0.315,0.122 -0.437,0c-0.122,-0.122 -0.122,-0.317 0,-0.438m1.425,1.425c0.121,-0.122 0.318,-0.122 0.439,0c0.12,0.122 0.12,0.317 0,0.437c-0.121,0.122 -0.318,0.122 -0.439,0c-0.122,-0.12 -0.122,-0.315 0,-0.437m0.089,-2.941c0.122,-0.124 0.319,-0.124 0.441,0c0.122,0.12 0.122,0.318 0,0.439c-0.122,0.122 -0.319,0.122 -0.441,0c-0.122,-0.121 -0.122,-0.319 0,-0.439m1.439,4.467c0.12,-0.121 0.316,-0.121 0.438,0c0.122,0.122 0.122,0.319 0,0.441c-0.122,0.121 -0.318,0.121 -0.438,0c-0.122,-0.122 -0.122,-0.319 0,-0.441m1.437,1.437c0.121,-0.122 0.317,-0.122 0.438,0c0.122,0.124 0.122,0.319 0,0.44c-0.121,0.122 -0.317,0.122 -0.438,0c-0.123,-0.121 -0.123,-0.316 0,-0.44m1.466,1.512c0.121,-0.122 0.322,-0.122 0.444,0c0.122,0.124 0.122,0.324 0,0.446c-0.122,0.121 -0.323,0.121 -0.444,0c-0.123,-0.122 -0.123,-0.322 0,-0.446m1.449,1.389c0.163,-0.163 0.426,-0.163 0.59,0c0.163,0.163 0.163,0.427 0,0.592c-0.164,0.163 -0.427,0.163 -0.59,0c-0.164,-0.165 -0.164,-0.429 0,-0.592m-14.188,-14.188c-0.164,0.162 -0.43,0.162 -0.593,0c-0.164,-0.163 -0.164,-0.43 0,-0.593c0.163,-0.162 0.429,-0.162 0.593,0c0.163,0.163 0.163,0.43 0,0.593m-1.37,-1.367c-0.22,0.217 -0.572,0.217 -0.79,0c-0.217,-0.217 -0.217,-0.571 0,-0.789c0.218,-0.215 0.57,-0.215 0.79,0c0.217,0.218 0.217,0.572 0,0.789m16.926,16.927c0.217,-0.216 0.571,-0.216 0.79,0c0.216,0.218 0.216,0.572 0,0.79c-0.219,0.218 -0.573,0.218 -0.79,0c-0.217,-0.218 -0.216,-0.572 0,-0.79m1.403,1.38c0.259,-0.257 0.678,-0.257 0.937,0c0.257,0.259 0.257,0.679 0,0.936c-0.259,0.256 -0.678,0.256 -0.937,0c-0.259,-0.257 -0.259,-0.677 0,-0.936m-19.737,-19.736c-0.259,0.257 -0.677,0.257 -0.937,0c-0.257,-0.259 -0.257,-0.677 0,-0.936c0.26,-0.261 0.678,-0.261 0.937,0c0.259,0.259 0.259,0.677 0,0.936m-1.42,-1.409c-0.285,0.287 -0.748,0.287 -1.035,0c-0.285,-0.286 -0.285,-0.748 0,-1.035c0.287,-0.285 0.75,-0.285 1.035,0c0.287,0.287 0.287,0.749 0,1.035m22.592,22.593c0.284,-0.287 0.748,-0.287 1.034,0c0.285,0.285 0.285,0.747 0,1.033c-0.286,0.284 -0.75,0.284 -1.034,0c-0.288,-0.286 -0.288,-0.748 0,-1.033m-24.032,-24.028c-0.318,0.322 -0.838,0.322 -1.156,0c-0.319,-0.318 -0.319,-0.836 0,-1.156c0.318,-0.32 0.838,-0.32 1.156,0c0.322,0.32 0.322,0.838 0,1.156m28.068,25.064c-0.321,0.32 -0.838,0.32 -1.158,0c-0.318,-0.318 -0.318,-0.837 0,-1.156c0.32,-0.318 0.837,-0.318 1.158,0c0.321,0.319 0.321,0.838 0,1.156m-17.039,-16.992c0.122,-0.121 0.319,-0.121 0.441,0c0.12,0.122 0.12,0.317 0,0.439c-0.122,0.124 -0.319,0.124 -0.441,0c-0.122,-0.122 -0.122,-0.317 0,-0.439m-1.478,-1.039c-0.122,-0.119 -0.122,-0.317 0,-0.439c0.12,-0.121 0.317,-0.121 0.439,0c0.122,0.122 0.122,0.32 0,0.439c-0.122,0.121 -0.319,0.121 -0.439,0m2.942,2.501c0.122,-0.119 0.317,-0.119 0.439,0c0.121,0.124 0.121,0.319 0,0.441c-0.122,0.122 -0.317,0.122 -0.439,0c-0.123,-0.122 -0.123,-0.317 0,-0.441m2.952,2.954c0.121,-0.122 0.319,-0.122 0.44,0c0.12,0.121 0.12,0.319 0,0.439c-0.121,0.121 -0.319,0.121 -0.44,0c-0.122,-0.12 -0.122,-0.318 0,-0.439m1.513,1.515c0.122,-0.122 0.32,-0.122 0.442,0c0.122,0.122 0.122,0.319 0,0.439c-0.122,0.122 -0.32,0.122 -0.442,0c-0.12,-0.12 -0.12,-0.317 0,-0.439m1.44,1.438c0.121,-0.124 0.317,-0.124 0.439,0c0.12,0.12 0.12,0.318 0,0.439c-0.122,0.122 -0.318,0.122 -0.439,0c-0.121,-0.121 -0.121,-0.319 0,-0.439m1.46,1.518c0.123,-0.122 0.321,-0.122 0.443,0c0.123,0.124 0.123,0.321 0,0.445c-0.122,0.121 -0.32,0.121 -0.443,0c-0.121,-0.124 -0.121,-0.321 0,-0.445m1.467,1.37c0.163,-0.165 0.426,-0.165 0.59,0c0.163,0.163 0.163,0.429 0,0.592c-0.164,0.161 -0.427,0.161 -0.59,0c-0.164,-0.163 -0.164,-0.429 0,-0.592m-14.189,-14.19c-0.162,0.165 -0.43,0.165 -0.593,0c-0.163,-0.163 -0.163,-0.427 0,-0.59c0.163,-0.163 0.431,-0.163 0.593,0c0.162,0.163 0.162,0.427 0,0.59m-1.37,-1.364c-0.219,0.216 -0.571,0.216 -0.788,0c-0.217,-0.218 -0.217,-0.571 0,-0.789c0.217,-0.218 0.569,-0.218 0.788,0c0.218,0.218 0.218,0.571 0,0.789m16.928,16.926c0.217,-0.218 0.57,-0.218 0.788,0c0.218,0.218 0.218,0.571 0,0.79c-0.218,0.218 -0.571,0.218 -0.788,0c-0.217,-0.219 -0.217,-0.572 0,-0.79m1.403,1.38c0.257,-0.259 0.677,-0.259 0.936,0c0.257,0.259 0.257,0.677 0,0.936c-0.259,0.256 -0.679,0.256 -0.936,0c-0.26,-0.259 -0.26,-0.677 0,-0.936m-19.736,-19.738c-0.259,0.26 -0.679,0.26 -0.938,0c-0.258,-0.257 -0.258,-0.677 0,-0.936c0.259,-0.258 0.679,-0.258 0.938,0c0.258,0.259 0.258,0.679 0,0.936m-1.431,-1.397c-0.285,0.285 -0.749,0.285 -1.034,0c-0.286,-0.285 -0.286,-0.749 0,-1.033c0.285,-0.287 0.749,-0.287 1.034,0c0.285,0.284 0.285,0.748 0,1.033m22.59,22.59c0.287,-0.284 0.748,-0.284 1.035,0c0.284,0.287 0.284,0.75 0,1.035c-0.287,0.286 -0.748,0.286 -1.035,0c-0.286,-0.285 -0.286,-0.748 0,-1.035m-24.018,-24.035c-0.319,0.316 -0.838,0.316 -1.157,0c-0.319,-0.321 -0.319,-0.839 0,-1.158c0.319,-0.32 0.838,-0.32 1.157,0c0.321,0.319 0.321,0.837 0,1.158m28.047,25.082c-0.319,0.321 -0.839,0.321 -1.158,0c-0.319,-0.319 -0.319,-0.838 0,-1.157c0.319,-0.321 0.839,-0.321 1.158,0c0.32,0.319 0.32,0.838 0,1.157m-20.937,-20.918c-0.163,0.163 -0.427,0.163 -0.59,0c-0.163,-0.165 -0.163,-0.429 0,-0.592c0.162,-0.163 0.427,-0.163 0.59,0c0.163,0.163 0.163,0.427 0,0.592m14.78,14.188c0.163,0.163 0.163,0.427 0,0.589c-0.162,0.163 -0.43,0.163 -0.593,0c-0.162,-0.162 -0.162,-0.426 0,-0.589c0.163,-0.163 0.431,-0.163 0.593,0m-16.141,-15.565c-0.216,0.218 -0.569,0.218 -0.788,0c-0.218,-0.218 -0.218,-0.571 0,-0.79c0.219,-0.215 0.572,-0.215 0.788,0c0.218,0.219 0.218,0.572 0,0.79m16.929,16.929c0.218,-0.218 0.569,-0.218 0.789,0c0.218,0.218 0.218,0.571 0,0.787c-0.22,0.218 -0.571,0.218 -0.789,0c-0.219,-0.216 -0.219,-0.569 0,-0.787m1.395,1.384c0.258,-0.258 0.677,-0.258 0.937,0c0.259,0.258 0.259,0.679 0,0.936c-0.26,0.26 -0.679,0.257 -0.937,0c-0.258,-0.257 -0.258,-0.678 0,-0.936m-19.736,-19.736c-0.258,0.26 -0.677,0.26 -0.935,0c-0.259,-0.26 -0.259,-0.677 0,-0.936c0.258,-0.258 0.677,-0.258 0.935,0c0.26,0.259 0.26,0.676 0,0.936m-1.421,-1.408c-0.285,0.286 -0.748,0.286 -1.035,0c-0.284,-0.286 -0.284,-0.749 0,-1.035c0.287,-0.284 0.75,-0.284 1.035,0c0.286,0.286 0.286,0.749 0,1.035m22.592,22.592c0.284,-0.287 0.748,-0.287 1.034,0c0.286,0.285 0.286,0.748 0,1.033c-0.286,0.286 -0.75,0.286 -1.034,0c-0.286,-0.285 -0.286,-0.748 0,-1.033m-24.026,-24.03c-0.319,0.319 -0.837,0.319 -1.157,0c-0.321,-0.32 -0.321,-0.839 0,-1.16c0.32,-0.318 0.838,-0.318 1.157,0c0.321,0.321 0.321,0.84 0,1.16m28.053,25.076c-0.32,0.32 -0.837,0.32 -1.157,0c-0.32,-0.322 -0.32,-0.839 0,-1.156c0.32,-0.322 0.837,-0.322 1.157,0c0.321,0.317 0.321,0.834 0,1.156m-7.625,-7.635c-0.164,0.161 -0.428,0.161 -0.591,0c-0.163,-0.166 -0.163,-0.43 0,-0.593c0.163,-0.163 0.427,-0.163 0.591,0c0.164,0.163 0.164,0.427 0,0.593m1.482,0.89c0.164,0.163 0.164,0.426 0,0.589c-0.164,0.166 -0.427,0.166 -0.59,0c-0.163,-0.163 -0.163,-0.426 0,-0.589c0.163,-0.163 0.426,-0.163 0.59,0m-2.959,-2.369c-0.163,0.164 -0.43,0.164 -0.593,0c-0.162,-0.166 -0.162,-0.429 0,-0.591c0.163,-0.163 0.43,-0.163 0.593,0c0.163,0.162 0.163,0.425 0,0.591m-1.479,-1.477c-0.163,0.163 -0.426,0.163 -0.59,0c-0.164,-0.163 -0.164,-0.427 0,-0.593c0.164,-0.163 0.427,-0.163 0.59,0c0.163,0.166 0.163,0.43 0,0.593m-1.477,-1.48c-0.163,0.164 -0.427,0.164 -0.59,0c-0.163,-0.162 -0.163,-0.425 0,-0.588c0.163,-0.165 0.427,-0.165 0.59,0c0.163,0.163 0.163,0.426 0,0.588m-1.478,-1.476c-0.163,0.165 -0.427,0.165 -0.59,0c-0.164,-0.163 -0.164,-0.427 0,-0.59c0.163,-0.163 0.427,-0.163 0.59,0c0.164,0.163 0.164,0.427 0,0.59m-1.476,-1.476c-0.163,0.162 -0.429,0.162 -0.592,0c-0.163,-0.163 -0.163,-0.429 0,-0.592c0.163,-0.164 0.429,-0.164 0.592,0c0.163,0.163 0.163,0.429 0,0.592m-1.479,-1.478c-0.163,0.163 -0.427,0.163 -0.591,0c-0.163,-0.163 -0.163,-0.427 0,-0.593c0.164,-0.163 0.428,-0.163 0.591,0c0.163,0.166 0.163,0.43 0,0.593m-1.476,-1.478c-0.164,0.163 -0.427,0.163 -0.592,0c-0.163,-0.163 -0.163,-0.428 0,-0.593c0.165,-0.16 0.428,-0.16 0.592,0c0.163,0.165 0.163,0.43 0,0.593m-1.476,-1.476c-0.165,0.163 -0.431,0.163 -0.594,0c-0.163,-0.165 -0.163,-0.429 0,-0.592c0.163,-0.163 0.429,-0.163 0.594,0c0.162,0.163 0.162,0.427 0,0.592m-1.479,-1.478c-0.162,0.163 -0.428,0.163 -0.592,0c-0.163,-0.164 -0.163,-0.43 0,-0.592c0.164,-0.163 0.43,-0.163 0.592,0c0.163,0.162 0.163,0.428 0,0.592m-1.357,-1.379c-0.218,0.216 -0.571,0.216 -0.788,0c-0.22,-0.22 -0.22,-0.572 0,-0.79c0.217,-0.218 0.57,-0.218 0.788,0c0.218,0.218 0.218,0.57 0,0.79m16.929,16.928c0.216,-0.218 0.569,-0.218 0.788,0c0.218,0.216 0.218,0.569 0,0.787c-0.219,0.218 -0.572,0.218 -0.788,0c-0.218,-0.218 -0.218,-0.571 0,-0.787m1.391,1.389c0.259,-0.26 0.677,-0.26 0.937,0c0.259,0.256 0.259,0.676 0,0.936c-0.26,0.257 -0.678,0.257 -0.937,0c-0.259,-0.26 -0.259,-0.68 0,-0.936m-19.736,-19.738c-0.259,0.259 -0.678,0.259 -0.935,0c-0.26,-0.258 -0.26,-0.677 0,-0.936c0.257,-0.259 0.676,-0.259 0.935,0c0.259,0.259 0.259,0.678 0,0.936m-1.433,-1.393c-0.287,0.284 -0.749,0.284 -1.037,0c-0.284,-0.287 -0.284,-0.751 0,-1.035c0.288,-0.287 0.75,-0.287 1.037,0c0.285,0.284 0.285,0.748 0,1.035m22.589,22.59c0.288,-0.287 0.748,-0.287 1.036,0c0.286,0.285 0.286,0.749 0,1.033c-0.288,0.287 -0.748,0.287 -1.036,0c-0.285,-0.284 -0.285,-0.748 0,-1.033m-24.024,-24.029c-0.321,0.32 -0.839,0.32 -1.159,0c-0.32,-0.319 -0.32,-0.839 0,-1.158c0.32,-0.319 0.838,-0.319 1.159,0c0.318,0.319 0.318,0.839 0,1.158m28.055,25.074c-0.32,0.319 -0.837,0.319 -1.157,0c-0.32,-0.319 -0.32,-0.838 0,-1.157c0.32,-0.321 0.837,-0.321 1.157,0c0.322,0.319 0.322,0.838 0,1.157m-21.631,-21.6c0.218,-0.216 0.572,-0.216 0.789,0c0.217,0.219 0.217,0.572 0,0.79c-0.217,0.217 -0.571,0.217 -0.789,0c-0.218,-0.218 -0.218,-0.571 0,-0.79m-1.469,-0.681c-0.219,-0.218 -0.219,-0.57 0,-0.787c0.217,-0.221 0.57,-0.221 0.786,0c0.22,0.217 0.22,0.569 0,0.787c-0.216,0.218 -0.569,0.218 -0.786,0m2.939,2.15c0.217,-0.216 0.57,-0.216 0.789,0c0.216,0.217 0.216,0.572 0,0.79c-0.219,0.217 -0.572,0.217 -0.789,0c-0.217,-0.218 -0.217,-0.573 0,-0.79m1.474,1.476c0.218,-0.219 0.571,-0.219 0.789,0c0.219,0.218 0.219,0.571 0,0.79c-0.218,0.218 -0.571,0.218 -0.789,0c-0.217,-0.219 -0.217,-0.572 0,-0.79m1.479,1.478c0.217,-0.216 0.571,-0.216 0.789,0c0.217,0.218 0.217,0.572 0,0.79c-0.218,0.218 -0.572,0.218 -0.789,0c-0.218,-0.218 -0.218,-0.572 0,-0.79m1.473,1.476c0.218,-0.218 0.571,-0.218 0.789,0c0.219,0.216 0.219,0.569 0,0.786c-0.218,0.219 -0.571,0.219 -0.789,0c-0.217,-0.217 -0.217,-0.57 0,-0.786m1.492,1.489c0.217,-0.216 0.571,-0.216 0.789,0c0.218,0.217 0.218,0.572 0,0.79c-0.218,0.217 -0.572,0.217 -0.789,0c-0.217,-0.218 -0.217,-0.573 0,-0.79m1.482,1.483c0.217,-0.218 0.569,-0.218 0.788,0c0.218,0.216 0.218,0.569 0,0.787c-0.219,0.218 -0.571,0.218 -0.788,0c-0.22,-0.218 -0.22,-0.571 0,-0.787m1.456,1.458c0.22,-0.219 0.57,-0.219 0.789,0c0.218,0.217 0.218,0.567 0,0.787c-0.219,0.218 -0.569,0.218 -0.789,0c-0.216,-0.22 -0.216,-0.57 0,-0.787m1.486,1.487c0.219,-0.221 0.572,-0.221 0.789,0c0.218,0.215 0.218,0.569 0,0.786c-0.217,0.219 -0.57,0.219 -0.789,0c-0.216,-0.217 -0.216,-0.571 0,-0.786m1.477,1.473c0.218,-0.218 0.571,-0.218 0.789,0c0.217,0.218 0.217,0.572 0,0.79c-0.218,0.216 -0.571,0.216 -0.789,0c-0.217,-0.218 -0.217,-0.572 0,-0.79m2.184,1.579c0.164,0.165 0.164,0.429 0,0.592c-0.164,0.163 -0.428,0.163 -0.592,0c-0.163,-0.163 -0.163,-0.427 0,-0.592c0.164,-0.161 0.428,-0.161 0.592,0m0.774,1.379c0.217,-0.218 0.57,-0.218 0.788,0c0.218,0.219 0.218,0.572 0,0.787c-0.218,0.219 -0.571,0.219 -0.788,0c-0.218,-0.215 -0.218,-0.568 0,-0.787m1.407,1.375c0.259,-0.259 0.677,-0.259 0.937,0c0.257,0.257 0.257,0.678 0,0.937c-0.26,0.257 -0.678,0.257 -0.937,0c-0.26,-0.259 -0.26,-0.68 0,-0.937m-19.737,-19.737c-0.258,0.258 -0.678,0.258 -0.936,0c-0.259,-0.258 -0.259,-0.678 0,-0.935c0.258,-0.259 0.678,-0.259 0.936,0c0.258,0.257 0.258,0.677 0,0.935m-1.417,-1.411c-0.286,0.286 -0.749,0.286 -1.035,0c-0.285,-0.287 -0.285,-0.748 0,-1.034c0.287,-0.287 0.749,-0.287 1.035,0c0.286,0.286 0.286,0.747 0,1.034m22.591,22.588c0.285,-0.283 0.748,-0.283 1.034,0c0.288,0.288 0.288,0.751 0,1.037c-0.286,0.286 -0.749,0.286 -1.034,0c-0.286,-0.286 -0.286,-0.749 0,-1.037m-24.024,-24.028c-0.32,0.32 -0.84,0.32 -1.158,0c-0.319,-0.319 -0.319,-0.838 0,-1.157c0.318,-0.32 0.838,-0.32 1.158,0c0.32,0.319 0.32,0.838 0,1.157m28.047,25.083c-0.32,0.32 -0.841,0.32 -1.158,0c-0.32,-0.319 -0.32,-0.838 0,-1.157c0.317,-0.321 0.838,-0.321 1.158,0c0.318,0.319 0.318,0.838 0,1.157m-5.375,-5.359c0.217,-0.218 0.568,-0.218 0.786,0c0.219,0.216 0.219,0.569 0,0.787c-0.218,0.218 -0.569,0.218 -0.786,0c-0.219,-0.218 -0.219,-0.571 0,-0.787m-1.479,-0.707c-0.219,-0.218 -0.219,-0.572 0,-0.789c0.215,-0.216 0.571,-0.216 0.788,0c0.217,0.217 0.217,0.571 0,0.789c-0.217,0.217 -0.573,0.217 -0.788,0m2.878,2.084c0.259,-0.26 0.678,-0.26 0.937,0c0.259,0.258 0.259,0.676 0,0.936c-0.259,0.26 -0.678,0.26 -0.937,0c-0.257,-0.26 -0.257,-0.678 0,-0.936m-3.487,-3.486c-0.258,0.257 -0.679,0.257 -0.935,0c-0.258,-0.26 -0.258,-0.677 0,-0.937c0.256,-0.259 0.677,-0.259 0.935,0c0.258,0.26 0.258,0.677 0,0.937m-1.48,-1.483c-0.258,0.26 -0.678,0.26 -0.936,0c-0.26,-0.259 -0.26,-0.677 0,-0.937c0.258,-0.258 0.678,-0.258 0.936,0c0.258,0.26 0.258,0.678 0,0.937m-1.465,-1.467c-0.26,0.26 -0.68,0.26 -0.938,0c-0.258,-0.257 -0.258,-0.678 0,-0.936c0.258,-0.257 0.678,-0.257 0.938,0c0.257,0.258 0.257,0.679 0,0.936m-1.479,-1.477c-0.259,0.258 -0.679,0.258 -0.936,0c-0.259,-0.257 -0.259,-0.678 0,-0.934c0.257,-0.26 0.677,-0.26 0.936,0c0.258,0.256 0.258,0.677 0,0.934m-1.48,-1.478c-0.257,0.259 -0.678,0.259 -0.937,0c-0.256,-0.26 -0.256,-0.677 0,-0.937c0.259,-0.259 0.68,-0.259 0.937,0c0.259,0.26 0.259,0.677 0,0.937m-1.485,-1.485c-0.259,0.257 -0.678,0.257 -0.936,0c-0.261,-0.26 -0.261,-0.68 0,-0.937c0.258,-0.26 0.677,-0.26 0.936,0c0.256,0.257 0.256,0.677 0,0.937m-1.468,-1.469c-0.259,0.259 -0.678,0.259 -0.937,0c-0.259,-0.26 -0.259,-0.679 0,-0.938c0.259,-0.258 0.678,-0.258 0.937,0c0.259,0.259 0.259,0.678 0,0.938m-1.484,-1.483c-0.257,0.256 -0.676,0.256 -0.935,0c-0.259,-0.259 -0.259,-0.678 0,-0.936c0.259,-0.26 0.678,-0.26 0.935,0c0.259,0.258 0.259,0.677 0,0.936m-1.47,-1.471c-0.258,0.258 -0.678,0.258 -0.935,0c-0.26,-0.258 -0.26,-0.678 0,-0.937c0.257,-0.258 0.677,-0.258 0.935,0c0.258,0.259 0.258,0.679 0,0.937m-1.478,-1.478c-0.261,0.257 -0.678,0.257 -0.937,0c-0.257,-0.259 -0.257,-0.68 0,-0.936c0.259,-0.26 0.676,-0.26 0.937,0c0.259,0.256 0.259,0.677 0,0.936m-1.455,-1.455c-0.261,0.257 -0.68,0.257 -0.937,0c-0.259,-0.26 -0.259,-0.679 0,-0.937c0.257,-0.259 0.676,-0.259 0.937,0c0.258,0.258 0.258,0.677 0,0.937m-1.504,-1.503c-0.259,0.258 -0.678,0.258 -0.936,0c-0.258,-0.26 -0.258,-0.679 0,-0.937c0.258,-0.259 0.677,-0.259 0.936,0c0.26,0.258 0.26,0.677 0,0.937m-1.413,-1.415c-0.285,0.284 -0.748,0.284 -1.034,0c-0.286,-0.286 -0.286,-0.75 0,-1.034c0.286,-0.287 0.749,-0.287 1.034,0c0.284,0.284 0.284,0.748 0,1.034m22.59,22.591c0.286,-0.286 0.749,-0.286 1.035,0c0.284,0.285 0.284,0.749 0,1.033c-0.286,0.286 -0.749,0.286 -1.035,0c-0.285,-0.284 -0.285,-0.748 0,-1.033m-24.032,-24.024c-0.32,0.321 -0.837,0.321 -1.158,0c-0.318,-0.32 -0.318,-0.838 0,-1.158c0.321,-0.319 0.838,-0.319 1.158,0c0.32,0.32 0.32,0.838 0,1.158m28.052,25.078c-0.318,0.319 -0.837,0.319 -1.156,0c-0.321,-0.32 -0.321,-0.838 0,-1.159c0.319,-0.319 0.838,-0.319 1.156,0c0.322,0.321 0.322,0.839 0,1.159m-18.736,-18.75c0.259,-0.258 0.678,-0.258 0.936,0c0.259,0.258 0.259,0.678 0,0.935c-0.258,0.26 -0.677,0.26 -0.936,0c-0.259,-0.257 -0.259,-0.677 0,-0.935m-1.47,-0.534c-0.259,-0.259 -0.259,-0.678 0,-0.936c0.257,-0.259 0.678,-0.259 0.937,0c0.258,0.258 0.258,0.677 0,0.936c-0.259,0.258 -0.68,0.258 -0.937,0m2.956,2.02c0.258,-0.259 0.678,-0.259 0.937,0c0.259,0.259 0.259,0.677 0,0.937c-0.259,0.256 -0.679,0.256 -0.937,0c-0.258,-0.26 -0.258,-0.678 0,-0.937m1.484,1.483c0.258,-0.26 0.677,-0.26 0.935,0c0.259,0.259 0.259,0.677 0,0.936c-0.258,0.26 -0.677,0.26 -0.935,0c-0.26,-0.259 -0.26,-0.677 0,-0.936m11.254,11.254c-0.258,0.26 -0.678,0.26 -0.937,0c-0.259,-0.258 -0.259,-0.676 0,-0.936c0.259,-0.259 0.679,-0.259 0.937,0c0.258,0.26 0.258,0.678 0,0.936m1.477,0.542c0.259,0.26 0.259,0.68 0,0.937c-0.258,0.259 -0.677,0.259 -0.935,0c-0.259,-0.257 -0.259,-0.677 0,-0.937c0.258,-0.259 0.677,-0.259 0.935,0m-2.947,-2.012c-0.261,0.259 -0.678,0.259 -0.938,0c-0.258,-0.257 -0.258,-0.677 0,-0.937c0.26,-0.258 0.677,-0.258 0.938,0c0.259,0.26 0.259,0.68 0,0.937m-1.477,-1.476c-0.258,0.259 -0.677,0.259 -0.935,0c-0.259,-0.257 -0.259,-0.678 0,-0.936c0.258,-0.257 0.677,-0.257 0.935,0c0.258,0.258 0.258,0.679 0,0.936m-1.473,-1.474c-0.257,0.26 -0.677,0.26 -0.937,0c-0.258,-0.257 -0.258,-0.677 0,-0.936c0.26,-0.257 0.68,-0.257 0.937,0c0.26,0.259 0.26,0.679 0,0.936m-1.466,-1.466c-0.258,0.259 -0.679,0.259 -0.937,0c-0.257,-0.257 -0.257,-0.677 0,-0.934c0.258,-0.261 0.679,-0.261 0.937,0c0.257,0.257 0.257,0.677 0,0.934m-1.48,-1.478c-0.257,0.257 -0.677,0.257 -0.935,0c-0.259,-0.26 -0.259,-0.68 0,-0.936c0.258,-0.26 0.678,-0.26 0.935,0c0.258,0.256 0.258,0.676 0,0.936m-2.435,-2.424c0.259,-0.257 0.679,-0.257 0.935,0c0.259,0.26 0.259,0.68 0,0.937c-0.256,0.259 -0.676,0.259 -0.935,0c-0.257,-0.257 -0.257,-0.677 0,-0.937m11.782,11.772c0.287,-0.287 0.75,-0.287 1.035,0c0.284,0.284 0.284,0.748 0,1.035c-0.285,0.284 -0.748,0.284 -1.035,0c-0.286,-0.287 -0.286,-0.751 0,-1.035m-22.591,-22.591c-0.286,0.285 -0.748,0.285 -1.034,0c-0.285,-0.287 -0.285,-0.75 0,-1.035c0.286,-0.287 0.748,-0.287 1.034,0c0.286,0.285 0.286,0.748 0,1.035m1.414,0.476c0.259,0.261 0.259,0.678 0,0.938c-0.257,0.257 -0.676,0.257 -0.936,0c-0.258,-0.26 -0.258,-0.677 0,-0.938c0.26,-0.258 0.679,-0.258 0.936,0m0.498,1.458c0.288,-0.287 0.75,-0.287 1.036,0c0.287,0.286 0.287,0.749 0,1.034c-0.286,0.287 -0.748,0.287 -1.036,0c-0.285,-0.285 -0.285,-0.748 0,-1.034m1.466,1.464c0.285,-0.285 0.749,-0.285 1.036,0c0.285,0.287 0.285,0.749 0,1.036c-0.287,0.286 -0.751,0.286 -1.036,0c-0.285,-0.287 -0.285,-0.749 0,-1.036m-4.818,-4.831c-0.32,0.321 -0.839,0.321 -1.159,0c-0.32,-0.318 -0.32,-0.837 0,-1.156c0.32,-0.321 0.839,-0.321 1.159,0c0.318,0.319 0.318,0.838 0,1.156m28.08,25.086c-0.319,0.322 -0.837,0.322 -1.158,0c-0.321,-0.319 -0.321,-0.838 0,-1.158c0.321,-0.32 0.839,-0.32 1.158,0c0.32,0.32 0.32,0.839 0,1.158m-1.471,-1.468c-0.318,0.318 -0.838,0.318 -1.157,0c-0.319,-0.32 -0.319,-0.841 0,-1.16c0.319,-0.319 0.839,-0.319 1.157,0c0.321,0.319 0.321,0.84 0,1.16m-1.478,-1.481c-0.32,0.321 -0.838,0.321 -1.158,0c-0.321,-0.319 -0.321,-0.838 0,-1.157c0.32,-0.321 0.838,-0.321 1.158,0c0.32,0.319 0.32,0.838 0,1.157m-1.471,-1.472c-0.319,0.322 -0.838,0.322 -1.158,0c-0.32,-0.318 -0.32,-0.837 0,-1.156c0.32,-0.321 0.839,-0.321 1.158,0c0.319,0.319 0.319,0.838 0,1.156m-1.478,-1.477c-0.32,0.321 -0.838,0.321 -1.158,0c-0.319,-0.319 -0.319,-0.838 0,-1.156c0.32,-0.323 0.838,-0.323 1.158,0c0.32,0.318 0.32,0.837 0,1.156m-1.476,-1.476c-0.319,0.32 -0.838,0.32 -1.159,0c-0.319,-0.318 -0.319,-0.838 0,-1.159c0.321,-0.319 0.84,-0.319 1.159,0c0.319,0.321 0.319,0.841 0,1.159m-1.474,-1.473c-0.318,0.321 -0.838,0.321 -1.156,0c-0.319,-0.319 -0.319,-0.838 0,-1.158c0.318,-0.32 0.838,-0.32 1.156,0c0.321,0.32 0.321,0.839 0,1.158m-1.47,-1.471c-0.321,0.321 -0.838,0.321 -1.158,0c-0.319,-0.319 -0.319,-0.838 0,-1.157c0.32,-0.322 0.837,-0.322 1.158,0c0.321,0.319 0.321,0.838 0,1.157m-1.477,-1.477c-0.321,0.32 -0.84,0.32 -1.157,0c-0.322,-0.32 -0.322,-0.839 0,-1.158c0.317,-0.319 0.836,-0.319 1.157,0c0.319,0.319 0.319,0.838 0,1.158m-1.48,-1.482c-0.322,0.322 -0.839,0.322 -1.16,0c-0.319,-0.319 -0.319,-0.837 0,-1.156c0.321,-0.32 0.838,-0.32 1.16,0c0.319,0.319 0.319,0.837 0,1.156m-1.479,-1.479c-0.32,0.323 -0.84,0.323 -1.158,0c-0.321,-0.318 -0.321,-0.836 0,-1.155c0.318,-0.322 0.838,-0.322 1.158,0c0.318,0.319 0.318,0.837 0,1.155m-1.473,-1.47c-0.319,0.319 -0.837,0.319 -1.159,0c-0.318,-0.321 -0.318,-0.838 0,-1.159c0.322,-0.319 0.84,-0.319 1.159,0c0.32,0.321 0.32,0.838 0,1.159m-1.479,-1.483c-0.321,0.322 -0.839,0.322 -1.159,0c-0.32,-0.318 -0.32,-0.838 0,-1.156c0.32,-0.319 0.838,-0.319 1.159,0c0.318,0.318 0.318,0.838 0,1.156m-1.49,-1.487c-0.32,0.319 -0.837,0.319 -1.158,0c-0.32,-0.32 -0.32,-0.837 0,-1.158c0.321,-0.318 0.838,-0.318 1.158,0c0.32,0.321 0.32,0.838 0,1.158m-1.463,-1.464c-0.321,0.32 -0.838,0.32 -1.158,0c-0.32,-0.319 -0.32,-0.838 0,-1.157c0.32,-0.319 0.837,-0.319 1.158,0c0.32,0.319 0.32,0.838 0,1.157m-1.463,-1.462c-0.319,0.32 -0.838,0.32 -1.158,0c-0.321,-0.32 -0.321,-0.839 0,-1.159c0.32,-0.319 0.839,-0.319 1.158,0c0.319,0.32 0.319,0.839 0,1.159m-1.483,-1.482c-0.319,0.321 -0.838,0.321 -1.157,0c-0.32,-0.32 -0.32,-0.838 0,-1.157c0.319,-0.322 0.838,-0.322 1.157,0c0.321,0.319 0.321,0.837 0,1.157m-1.485,-1.486c-0.32,0.319 -0.839,0.319 -1.159,0c-0.319,-0.32 -0.319,-0.837 0,-1.158c0.32,-0.319 0.839,-0.319 1.159,0c0.318,0.321 0.318,0.838 0,1.158m-1.493,-1.493c-0.32,0.321 -0.839,0.321 -1.157,0c-0.321,-0.32 -0.321,-0.838 0,-1.157c0.318,-0.321 0.837,-0.321 1.157,0c0.319,0.319 0.319,0.837 0,1.157" style="fill:#0070ba;fill-rule:nonzero;"/><path d="M63.089,31.741c0.132,0.257 0.134,0.566 0.001,0.823c0.258,-0.155 0.556,-0.216 0.846,-0.178c-0.031,-0.145 -0.034,-0.294 -0.014,-0.441l-0.008,-0.007c-0.285,0.03 -0.576,-0.037 -0.825,-0.197" style="fill:#0070ba;fill-rule:nonzero;"/><path d="M1.268,71.044l259.847,0" style="fill:none;fill-rule:nonzero;stroke:#13110c;stroke-width:0.37px;"/><path d="M4.352,77.771l4.808,11.107l4.825,-11.107l2.684,13.984l-1.508,0l-1.704,-8.948l-0.035,0l-4.262,9.492l-4.247,-9.492l-0.036,0l-1.702,8.948l-1.509,0l2.686,-13.984Z" style="fill:#1d1d1b;fill-rule:nonzero;"/><path d="M22.036,78.526l6.861,0l0,1.369l-5.386,0l0,3.93l5.228,0l0,1.368l-5.228,0l0,5.194l5.386,0l0,1.369l-6.861,0l0,-13.23Z" style="fill:#1d1d1b;fill-rule:nonzero;"/><path d="M36.564,90.387l3.649,0l0,1.369l-5.123,0l0,-13.23l1.474,0l0,11.861Z" style="fill:#1d1d1b;fill-rule:nonzero;"/><path d="M46.827,90.387l1.474,0c1.648,0 3.385,-0.404 3.385,-2.421c0,-2.055 -1.964,-2.352 -3.579,-2.352l-1.28,0l0,4.773Zm0,-6.036l0.562,0c1.666,0 3.086,-0.193 3.086,-2.246c0,-2.001 -1.262,-2.21 -3.07,-2.21l-0.578,0l0,4.456Zm-1.475,-5.825l2.176,0c2.404,0 4.423,0.877 4.423,3.579c0,1.07 -0.404,1.983 -1.3,2.579c1.579,0.387 2.51,1.807 2.51,3.387c0,2.63 -2.123,3.685 -4.737,3.685l-3.072,0l0,-13.23Z" style="fill:#1d1d1b;fill-rule:nonzero;"/><path d="M59.81,85.141c0,2.983 2.421,5.474 5.421,5.474c3.001,0 5.422,-2.491 5.422,-5.474c0,-3.001 -2.386,-5.475 -5.422,-5.475c-3.035,0 -5.421,2.474 -5.421,5.475m12.316,0.017c0,3.808 -3.123,6.826 -6.895,6.826c-3.773,0 -6.896,-3.018 -6.896,-6.826c0,-3.79 3.123,-6.86 6.896,-6.86c3.772,0 6.895,3.07 6.895,6.86" style="fill:#1d1d1b;fill-rule:nonzero;"/><path d="M79.248,86.404c0,0.983 -0.034,2.105 0.579,2.948c0.579,0.807 1.702,1.264 2.667,1.264c0.947,0 1.983,-0.44 2.598,-1.176c0.701,-0.843 0.648,-2 0.648,-3.036l0,-7.878l1.475,0l0,8.282c0,1.439 -0.106,2.579 -1.158,3.667c-0.913,0.983 -2.229,1.509 -3.563,1.509c-1.245,0 -2.526,-0.475 -3.421,-1.351c-1.159,-1.106 -1.299,-2.316 -1.299,-3.825l0,-8.282l1.474,0l0,7.878Z" style="fill:#1d1d1b;fill-rule:nonzero;"/><path d="M94.985,84.649l0.456,0c1.667,0 3.352,-0.314 3.352,-2.369c0,-2.176 -1.597,-2.386 -3.37,-2.386l-0.438,0l0,4.755Zm0,7.107l-1.475,0l0,-13.23l1.913,0c2.51,0 4.843,0.667 4.843,3.649c0,2.036 -1.28,3.475 -3.315,3.65l4.211,5.931l-1.808,0l-4,-5.808l-0.369,0l0,5.808Z" style="fill:#1d1d1b;fill-rule:nonzero;"/><path d="M106.792,77.964l10.318,10.809l0,-10.247l1.473,0l0,13.825l-10.316,-10.791l0,10.195l-1.475,0l0,-13.791Z" style="fill:#1d1d1b;fill-rule:nonzero;"/><path d="M125.021,78.526l6.86,0l0,1.369l-5.386,0l0,3.93l5.227,0l0,1.368l-5.227,0l0,5.194l5.386,0l0,1.369l-6.86,0l0,-13.23Z" style="fill:#1d1d1b;fill-rule:nonzero;"/><path d="M151.652,81.333l-2.263,5.299l4.475,0l-2.212,-5.299Zm-2.858,6.667l-1.598,3.755l-1.613,0l6.105,-13.861l5.948,13.861l-1.631,0l-1.562,-3.755l-5.649,0Z" style="fill:#1d1d1b;fill-rule:nonzero;"/><path d="M163.846,86.404c0,0.983 -0.035,2.105 0.579,2.948c0.579,0.807 1.703,1.264 2.667,1.264c0.948,0 1.983,-0.44 2.597,-1.176c0.702,-0.843 0.65,-2 0.65,-3.036l0,-7.878l1.473,0l0,8.282c0,1.439 -0.105,2.579 -1.157,3.667c-0.913,0.983 -2.229,1.509 -3.563,1.509c-1.245,0 -2.526,-0.475 -3.421,-1.351c-1.159,-1.106 -1.299,-2.316 -1.299,-3.825l0,-8.282l1.474,0l0,7.878Z" style="fill:#1d1d1b;fill-rule:nonzero;"/><path d="M184.109,81.105c-0.525,-0.912 -1.158,-1.438 -2.28,-1.438c-1.176,0 -2.194,0.842 -2.194,2.052c0,1.141 1.176,1.667 2.07,2.072l0.879,0.384c1.718,0.755 3.175,1.616 3.175,3.721c0,2.316 -1.86,4.088 -4.159,4.088c-2.123,0 -3.702,-1.369 -4.123,-3.422l1.439,-0.404c0.193,1.352 1.228,2.457 2.649,2.457c1.421,0 2.72,-1.088 2.72,-2.579c0,-1.545 -1.211,-2.071 -2.439,-2.632l-0.808,-0.351c-1.543,-0.702 -2.877,-1.492 -2.877,-3.386c0,-2.053 1.737,-3.369 3.703,-3.369c1.474,0 2.72,0.754 3.421,2.052l-1.176,0.755Z" style="fill:#1d1d1b;fill-rule:nonzero;"/><path d="M195.11,91.755l-1.475,0l0,-11.86l-3.192,0l0,-1.369l7.895,0l0,1.369l-3.228,0l0,11.86Z" style="fill:#1d1d1b;fill-rule:nonzero;"/><path d="M205.004,84.649l0.457,0c1.667,0 3.351,-0.314 3.351,-2.369c0,-2.176 -1.596,-2.386 -3.37,-2.386l-0.438,0l0,4.755Zm0,7.107l-1.475,0l0,-13.23l1.913,0c2.51,0 4.844,0.667 4.844,3.649c0,2.036 -1.281,3.475 -3.316,3.65l4.211,5.931l-1.808,0l-4,-5.808l-0.369,0l0,5.808Z" style="fill:#1d1d1b;fill-rule:nonzero;"/><path d="M221.565,81.333l-2.263,5.299l4.474,0l-2.211,-5.299Zm-2.858,6.667l-1.598,3.755l-1.615,0l6.107,-13.861l5.948,13.861l-1.631,0l-1.562,-3.755l-5.649,0Z" style="fill:#1d1d1b;fill-rule:nonzero;"/><path d="M234.145,90.387l3.65,0l0,1.369l-5.124,0l0,-13.23l1.474,0l0,11.861Z" style="fill:#1d1d1b;fill-rule:nonzero;"/><rect x="242.968" y="78.526" width="1.475" height="13.23" style="fill:#1d1d1b;"/><path d="M254.952,81.333l-2.264,5.299l4.475,0l-2.211,-5.299Zm-2.86,6.667l-1.596,3.755l-1.615,0l6.107,-13.861l5.947,13.861l-1.631,0l-1.561,-3.755l-5.651,0Z" style="fill:#1d1d1b;fill-rule:nonzero;"/></g></svg>